<?xml version="1.0" encoding="iso-8859-1"?>
<!-- Generator: Adobe Illustrator 18.1.1, SVG Export Plug-In . SVG Version: 6.00 Build 0)  -->
<svg version="1.1" id="Capa_1" xmlns="http://www.w3.org/2000/svg" xmlns:xlink="http://www.w3.org/1999/xlink" x="0px" y="0px"
	 viewBox="0 0 440 440" style="enable-background:new 0 0 440 440;" xml:space="preserve">
<g>
	<g>
		<path style="fill:#010002;" d="M367,82h-56V51c0-13.334-4.667-25.167-14-35.5S276.667,0,264,0h-85c-12.667,0-24.5,5.333-35.5,16
			S127,38.334,127,51v31H72L14,440h412L367,82z M280,82H158V51c0-5.336,2.333-10.17,7-14.5c4.667-4.333,9.334-6.5,14-6.5h85
			c4.667,0,8.5,2.167,11.5,6.5S280,45.667,280,51V82z"/>
	</g>
</g>
<g>
</g>
<g>
</g>
<g>
</g>
<g>
</g>
<g>
</g>
<g>
</g>
<g>
</g>
<g>
</g>
<g>
</g>
<g>
</g>
<g>
</g>
<g>
</g>
<g>
</g>
<g>
</g>
<g>
</g>
</svg>
