<?xml version="1.0" encoding="iso-8859-1"?>
<!-- Generator: Adobe Illustrator 18.1.1, SVG Export Plug-In . SVG Version: 6.00 Build 0)  -->
<svg version="1.1" id="Capa_1" xmlns="http://www.w3.org/2000/svg" xmlns:xlink="http://www.w3.org/1999/xlink" x="0px" y="0px"
	 viewBox="0 0 512 512" style="enable-background:new 0 0 512 512;" xml:space="preserve">
<g>
	<path style="fill:#010002;" d="M484.5,255c-18.333-18.333-40.167-27.5-65.5-27.5c-12.667,0-25,2.333-37,7l-31-54l24-40
		c4-6.667,2.333-12-5-16c-4-2.667-6.333-4-7-4s-1.167-0.333-1.5-1l-0.5-1h-47c-2.667,0-5.167,1.667-7.5,5s-3.5,6.667-3.5,10
		s1.167,6.833,3.5,10.5s4.833,5.5,7.5,5.5h30l-13,20H195l27-51h11c7.333,0,11-3.5,11-10.5s-3.667-10.5-11-10.5h-58
		c-8,0-12,3.5-12,10.5s4,10.5,12,10.5h20l-65,114c-10-4-22.333-6-37-6c-25.333,0-47.167,9.167-65.5,27.5S0,294.333,0,320
		s9.167,47.667,27.5,66s40.333,27.5,66,27.5S141,404.333,159,386s27-40.167,27-65.5c0-30.667-12-55.334-36-74l25-43l71,123l1,1
		c0,0.667,0.333,1,1,1v1c0.667,0,1,0.333,1,1h1c0.667,0,1,0.333,1,1h1h0.5h0.5h1c0.669,0.667,1.335,1,2,1v1h71
		c2.667,21.333,12.833,40.167,30.5,56.5s38.167,24.5,61.5,24.5c25.334,0,47.168-9.167,65.5-27.5c18.333-18.333,27.5-40.333,27.5-66
		S502.833,273.333,484.5,255z M163,320.5c0,19.333-6.833,35.833-20.5,49.5s-30.167,20.5-49.5,20.5s-35.833-6.833-49.5-20.5
		S23,339.833,23,320.5s6.833-35.833,20.5-49.5s30.167-20.5,49.5-20.5c8.667,0,17,1.667,25,5l-35,59c-4,6.667-2.667,12,4,16
		c2,1.333,4,2,6,2c4.667,0,8-2,10-6l35-60C154.667,280.5,163,298.5,163,320.5z M374,270.5l25,42h-49
		C352.667,296.5,360.667,282.5,374,270.5z M195,190.5h122l-61,104L195,190.5z M276,312.5l61-106l25,43
		c-20.667,16.667-32.334,37.667-35,63H276z M468.5,370.5c-13.667,14-30.167,21-49.5,21c-16.667,0-31.667-5.667-45-17
		s-21.333-25-24-41h69v-1h1h1c0.667-0.667,1.333-1,2-1h1c0-0.667,0.167-1,0.5-1s0.833-0.333,1.5-1l1-1l0.5-0.5l1-1l0.5-0.5
		c0-0.667,0.167-1,0.5-1s0.5-0.333,0.5-1v-1V322c0-0.333,0.167-0.667,0.5-1s0.333-0.667,0-1l-0.5-0.5v-1v-1v-1c0-0.667-0.333-1-1-1
		v-1l-35-59c8-3.333,16.333-5,25-5c19.333,0,35.833,6.833,49.5,20.5s20.5,30.167,20.5,49.5S482.167,356.5,468.5,370.5z"/>
</g>
<g>
</g>
<g>
</g>
<g>
</g>
<g>
</g>
<g>
</g>
<g>
</g>
<g>
</g>
<g>
</g>
<g>
</g>
<g>
</g>
<g>
</g>
<g>
</g>
<g>
</g>
<g>
</g>
<g>
</g>
</svg>
