<?xml version="1.0" encoding="iso-8859-1"?>
<!-- Generator: Adobe Illustrator 18.1.1, SVG Export Plug-In . SVG Version: 6.00 Build 0)  -->
<svg version="1.1" id="Capa_1" xmlns="http://www.w3.org/2000/svg" xmlns:xlink="http://www.w3.org/1999/xlink" x="0px" y="0px"
	 viewBox="0 0 495.777 495.777" style="enable-background:new 0 0 495.777 495.777;" xml:space="preserve">
<g>
	<g>
		<path style="fill:#010002;" d="M194.746,39c0-10.667-3.833-19.833-11.5-27.5S166.413,0,155.746,0s-19.833,3.833-27.5,11.5
			c-7.667,7.668-11.167,16.835-10.5,27.5c-0.667,10.667,2.833,19.667,10.5,27s16.834,11.333,27.5,12
			c10.667-0.667,19.834-4.667,27.5-12C190.913,58.667,194.746,49.667,194.746,39z"/>
		<path style="fill:#010002;" d="M305.746,250l-124-150c-3.333-5.333-11.833-8.333-25.5-9s-24.167,2-31.5,8l-60,109l14,92
			c8,13.333,18,15.333,30,6c8.667-6.667,11-13,7-19l-10-65l26-53v123l-62,164c-3.333,11.333-1.333,20.833,6,28.5
			c7.333,7.666,16,11,26,10s16.667-7.167,20-18.5l71-184v-92l-30-42c-2-2-1.833-3.833,0.5-5.5s4.5-1.5,6.5,0.5l102,121
			c5.334,7.333,12,10.333,20,9s13.334-5.167,16-11.5C310.414,265.167,309.746,258,305.746,250z"/>
		<path style="fill:#010002;" d="M257.746,458l-60-151l-25,67l35,104c4.667,10.666,12.167,16.5,22.5,17.5
			c10.334,1,18.667-2.334,25-10C261.588,477.833,262.422,468.666,257.746,458z"/>
		<path style="fill:#010002;" d="M418.746,492l1,1c2.668,3.333,5.668,3.666,9,1c2.668-2.667,3-5.667,1-9l-114-199
			c-3.332-3.333-6.666-3.667-10-1c-2.666,2.667-3,5.667-1,9L418.746,492z"/>
	</g>
</g>
<g>
</g>
<g>
</g>
<g>
</g>
<g>
</g>
<g>
</g>
<g>
</g>
<g>
</g>
<g>
</g>
<g>
</g>
<g>
</g>
<g>
</g>
<g>
</g>
<g>
</g>
<g>
</g>
<g>
</g>
</svg>
