<?xml version="1.0" encoding="iso-8859-1"?>
<!-- Generator: Adobe Illustrator 18.1.1, SVG Export Plug-In . SVG Version: 6.00 Build 0)  -->
<svg version="1.1" id="Capa_1" xmlns="http://www.w3.org/2000/svg" xmlns:xlink="http://www.w3.org/1999/xlink" x="0px" y="0px"
	 viewBox="0 0 504 504" style="enable-background:new 0 0 504 504;" xml:space="preserve">
<g>
	<g>
		<g>
			<path style="fill:#010002;" d="M100.952,446c9.333-4.667,14-11.667,14-21c0-16.667-10.667-25-32-25h-50v102h51
				c10,0,18.5-2.667,25.5-8s10.5-12.667,10.5-22C119.952,458,113.619,449.333,100.952,446z M52.952,420h26c10,0,15,3.333,15,10
				c0,7.333-4.667,11-14,11h-27V420z M81.952,482h-29v-31h29c10.667,0,16,5.333,16,16C97.952,477,92.619,482,81.952,482z"/>
			<path style="fill:#010002;" d="M180.952,426c-13.333,0-21.667,5-25,15v-11h-21v72h21v-34c0-6.667,1.833-12.167,5.5-16.5
				s8.833-6.5,15.5-6.5h2.5h7.5v-18C186.952,426.333,184.952,426,180.952,426z"/>
			<path style="fill:#010002;" d="M259.952,495.5c-1.334-4.333-2-8.167-2-11.5v-37c0-14-10-21-30-21c-21.333,0-32.333,8.333-33,25
				h20c0.667-7.333,5-11,13-11c8.667,0,13,3,13,9c0,1.333-0.333,2.333-1,3l-2,2c-0.667,0.667-1.5,1.167-2.5,1.5s-2.333,0.667-4,1
				s-3,0.667-4,1s-2.667,0.5-5,0.5s-4.167,0.333-5.5,1c-16,2-24,9.333-24,22c0,14,8,21,24,21c10.667,0,18.667-2.667,24-8
				c0.667,5.333,1.333,8,2,8h20C262.284,502,261.284,499.833,259.952,495.5z M237.952,472c0,11.333-5,17-15,17c-7.333,0-11-3-11-9
				s3.667-9.667,11-11c10-2,15-3.333,15-4V472z"/>
			<rect x="280.952" y="401" style="fill:#010002;" width="20" height="16"/>
			<rect x="278.952" y="430" style="fill:#010002;" width="20" height="72"/>
			<rect x="319.952" y="400" style="fill:#010002;" width="20" height="102"/>
			<rect x="360.952" y="400" style="fill:#010002;" width="20" height="102"/>
			<path style="fill:#010002;" d="M462.452,441.5c-6.332-9-15.166-13.5-26.5-13.5c-10.668,0-19.5,3.5-26.5,10.5
				s-10.5,15.833-10.5,26.5c0,11.333,3.332,20.667,10,28c6.666,7.333,15.666,11,27,11c14,0,25.332-7.333,34-22h-18l-2.5,2
				c-1.668,1.333-3.668,2.667-6,4c-2.334,1.333-4.5,2-6.5,2c-11.334,0-17.334-6.333-18-19h52
				C471.622,460.333,468.788,450.5,462.452,441.5z M418.952,461c0-10,5.332-15,16-15c8.666,0,14,5,16,15H418.952z"/>
			<path style="fill:#010002;" d="M140.452,359c9.667,0,18-3.5,25-10.5s10.5-15.5,10.5-25.5s-3.5-18.5-10.5-25.5
				s-15.333-10.5-25-10.5s-18,3.5-25,10.5s-10.5,15.5-10.5,25.5s3.5,18.5,10.5,25.5S130.785,359,140.452,359z"/>
			<path style="fill:#010002;" d="M140.452,215c9.667,0,18-3.5,25-10.5s10.5-15.333,10.5-25s-3.5-18-10.5-25s-15.333-10.5-25-10.5
				s-18,3.5-25,10.5s-10.5,15.333-10.5,25s3.5,18,10.5,25S130.785,215,140.452,215z"/>
			<path style="fill:#010002;" d="M140.452,72c9.667,0,18-3.5,25-10.5s10.5-15.5,10.5-25.5s-3.5-18.5-10.5-25.5S150.119,0,140.452,0
				s-18,3.5-25,10.5s-10.5,15.5-10.5,25.5s3.5,18.5,10.5,25.5S130.785,72,140.452,72z"/>
			<path style="fill:#010002;" d="M355.452,287c-9.668,0-18,3.5-25,10.5s-10.5,15.5-10.5,25.5s3.5,18.5,10.5,25.5
				s15.332,10.5,25,10.5c9.666,0,18-3.5,25-10.5s10.5-15.5,10.5-25.5s-3.5-18.5-10.5-25.5S365.118,287,355.452,287z"/>
			<path style="fill:#010002;" d="M355.452,144c-9.668,0-18,3.5-25,10.5s-10.5,15.333-10.5,25s3.5,18,10.5,25s15.332,10.5,25,10.5
				c9.666,0,18-3.5,25-10.5s10.5-15.333,10.5-25s-3.5-18-10.5-25S365.118,144,355.452,144z"/>
			<path style="fill:#010002;" d="M355.452,0c-9.668,0-18,3.5-25,10.5s-10.5,15.5-10.5,25.5s3.5,18.5,10.5,25.5s15.332,10.5,25,10.5
				c9.666,0,18-3.5,25-10.5s10.5-15.5,10.5-25.5s-3.5-18.5-10.5-25.5S365.118,0,355.452,0z"/>
		</g>
	</g>
</g>
<g>
</g>
<g>
</g>
<g>
</g>
<g>
</g>
<g>
</g>
<g>
</g>
<g>
</g>
<g>
</g>
<g>
</g>
<g>
</g>
<g>
</g>
<g>
</g>
<g>
</g>
<g>
</g>
<g>
</g>
</svg>
