<?xml version="1.0" encoding="iso-8859-1"?>
<!-- Generator: Adobe Illustrator 18.1.1, SVG Export Plug-In . SVG Version: 6.00 Build 0)  -->
<svg version="1.1" id="Capa_1" xmlns="http://www.w3.org/2000/svg" xmlns:xlink="http://www.w3.org/1999/xlink" x="0px" y="0px"
	 viewBox="0 0 512 512" style="enable-background:new 0 0 512 512;" xml:space="preserve">
<g>
	<g>
		<g>
			<path style="fill:#010002;" d="M489,122c-4.667-4-18-8.667-40-14l-19-2V60l2.5-0.5c1.667-0.333,3.167-0.5,4.5-0.5h3
				c14.667,8,22.333,15.667,23,23h37c-0.667-14.667-10.667-29.333-30-44c-8.667-6.667-22-10.667-40-12V0h-20v25
				c-14.667,1.333-27,6.333-37,15c-11.333,10.667-17,24.334-17,41c0,18.667,5.667,32,17,40c8.667,6,21,10.333,37,13v50
				c-7.333-0.667-12-2.333-14-5c-1.333-1.333-2.333-3.333-3-6s-1.167-4.833-1.5-6.5s-0.833-2.5-1.5-2.5h-37c0,17.333,6.667,31,20,41
				c7.335,6,19.668,9.667,37,11v20h20v-19c22-2,38-7.333,48-16c16-13.333,24-27.333,24-42C502,140.333,497.667,128,489,122z M410,97
				c-2.667,0-6-1.333-10-4c-6-2.667-9-7.667-9-15c0-7.335,2.667-12.668,8-16l2-2c0.667-0.667,1.5-1.167,2.5-1.5s3.167-0.833,6.5-1.5
				V97z M444,183c-0.667,0.667-2.167,1-4.5,1s-4.5,0.167-6.5,0.5l-3,0.5v-43c10,1.333,17.333,3.333,22,6c5.333,3.333,8,8,8,14
				C460,172.667,454.667,179.667,444,183z"/>
			<path style="fill:#010002;" d="M394,307h-5l-63-114c-3.333-6-8.333-9-15-9H120c-6.667,0-11.667,3-15,9L42,307h-6
				c-6,0-11.833,2.167-17.5,6.5S10,322.667,10,328v102c0,5.333,2.833,10.167,8.5,14.5S30,451,36,451h15v30c0,8.667,3.833,16,11.5,22
				s15.833,9,24.5,9h10c8.667,0,15.167-2.833,19.5-8.5s6.5-13.167,6.5-22.5v-30h174v30c0,8.667,3.833,16,11.5,22s15.833,9,24.5,9h10
				c8,0,14.333-2.833,19-8.5s7-13.167,7-22.5v-30h25c10.667,0,16-7,16-21V328C410,314,404.667,307,394,307z M89.5,381.5
				c-5,5-11,7.5-18,7.5s-13-2.5-18-7.5s-7.5-11-7.5-18s2.5-13,7.5-18s11-7.5,18-7.5s13,2.5,18,7.5s7.5,11,7.5,18
				S94.5,376.5,89.5,381.5z M92,307l42-83c2.667-6,7.667-9,15-9h133c6.667,0,11.667,3,15,9l41,83H92z M376.5,381.5
				c-5,5-11,7.5-18,7.5s-13-2.5-18-7.5s-7.5-11-7.5-18s2.5-13,7.5-18s11-7.5,18-7.5s13,2.5,18,7.5s7.5,11,7.5,18
				S381.5,376.5,376.5,381.5z"/>
		</g>
	</g>
</g>
<g>
</g>
<g>
</g>
<g>
</g>
<g>
</g>
<g>
</g>
<g>
</g>
<g>
</g>
<g>
</g>
<g>
</g>
<g>
</g>
<g>
</g>
<g>
</g>
<g>
</g>
<g>
</g>
<g>
</g>
</svg>
