<?xml version="1.0" encoding="iso-8859-1"?>
<!-- Generator: Adobe Illustrator 18.1.1, SVG Export Plug-In . SVG Version: 6.00 Build 0)  -->
<svg version="1.1" id="Capa_1" xmlns="http://www.w3.org/2000/svg" xmlns:xlink="http://www.w3.org/1999/xlink" x="0px" y="0px"
	 viewBox="0 0 492 492" style="enable-background:new 0 0 492 492;" xml:space="preserve">
<g>
	<path style="fill:#010002;" d="M439,12c-8-8-17.667-12-29-12H82C70.667,0,61,4,53,12S41,29.667,41,41v410c0,11.333,4,21,12,29
		s17.667,12,29,12h328c11.333,0,21-4,29-12s12-17.667,12-29V41C451,29.667,447,20,439,12z M164,410c0,5.333-2,10-6,14s-8.667,6-14,6
		h-41c-6,0-11-2-15-6s-6-8.667-6-14v-10c0-6,2-11,6-15s9-6,15-6h41c5.333,0,10,2,14,6s6,9,6,15V410z M164,328c0,5.333-2,10-6,14
		s-8.667,6-14,6h-41c-6,0-11-2-15-6s-6-8.667-6-14v-10c0-6,2-11,6-15s9-6,15-6h41c5.333,0,10,2,14,6s6,9,6,15V328z M164,246
		c0,5.333-2,10-6,14s-8.667,6-14,6h-41c-6,0-11-2-15-6s-6-8.667-6-14v-10c0-6,2-11,6-15s9-6,15-6h41c5.333,0,10,2,14,6s6,9,6,15V246
		z M287,410c0,5.333-2,10-6,14s-9,6-15,6h-40c-6,0-11-2-15-6s-6-8.667-6-14v-10c0-6,2-11,6-15s9-6,15-6h40c6,0,11,2,15,6s6,9,6,15
		V410z M287,328c0,5.333-2,10-6,14s-9,6-15,6h-40c-6,0-11-2-15-6s-6-8.667-6-14v-10c0-6,2-11,6-15s9-6,15-6h40c6,0,11,2,15,6
		s6,9,6,15V328z M287,246c0,5.333-2,10-6,14s-9,6-15,6h-40c-6,0-11-2-15-6s-6-8.667-6-14v-10c0-6,2-11,6-15s9-6,15-6h40
		c6,0,11,2,15,6s6,9,6,15V246z M410,410c0,5.333-2,10-6,14s-9,6-15,6h-41c-5.333,0-10-2-14-6s-6-8.667-6-14v-10c0-6,2-11,6-15
		s8.667-6,14-6h41c6,0,11,2,15,6s6,9,6,15V410z M410,328c0,5.333-2,10-6,14s-9,6-15,6h-41c-5.333,0-10-2-14-6s-6-8.667-6-14v-10
		c0-6,2-11,6-15s8.667-6,14-6h41c6,0,11,2,15,6s6,9,6,15V328z M410,246c0,5.333-2,10-6,14s-9,6-15,6h-41c-5.333,0-10-2-14-6
		s-6-8.667-6-14v-10c0-6,2-11,6-15s8.667-6,14-6h41c6,0,11,2,15,6s6,9,6,15V246z M410,154c0,5.333-2,10-6,14s-9,6-15,6H103
		c-6,0-11-2-15-6s-6-8.667-6-14V72c0-6,2-11,6-15s9-6,15-6h286c6,0,11,2,15,6s6,9,6,15V154z"/>
</g>
<g>
</g>
<g>
</g>
<g>
</g>
<g>
</g>
<g>
</g>
<g>
</g>
<g>
</g>
<g>
</g>
<g>
</g>
<g>
</g>
<g>
</g>
<g>
</g>
<g>
</g>
<g>
</g>
<g>
</g>
</svg>
