<?xml version="1.0" encoding="iso-8859-1"?>
<!-- Generator: Adobe Illustrator 18.1.1, SVG Export Plug-In . SVG Version: 6.00 Build 0)  -->
<svg version="1.1" id="Capa_1" xmlns="http://www.w3.org/2000/svg" xmlns:xlink="http://www.w3.org/1999/xlink" x="0px" y="0px"
	 viewBox="0 0 492 492" style="enable-background:new 0 0 492 492;" xml:space="preserve">
<g>
	<g>
		<path style="fill:#010002;" d="M484,385.5c-5.333-5.333-12-8-20-8h-34l-161-302c-5.333-9.333-13-14-23-14s-17.667,4.667-23,14
			l-161,302H28c-8,0-14.667,2.667-20,8s-8,11.667-8,19S2.667,418,8,423s12,7.5,20,7.5h50h336h50c8,0,14.667-2.5,20-7.5
			s8-11.167,8-18.5C492,397.166,489.333,390.833,484,385.5z M155,377.5l91-184l91,184H155z"/>
	</g>
</g>
<g>
</g>
<g>
</g>
<g>
</g>
<g>
</g>
<g>
</g>
<g>
</g>
<g>
</g>
<g>
</g>
<g>
</g>
<g>
</g>
<g>
</g>
<g>
</g>
<g>
</g>
<g>
</g>
<g>
</g>
</svg>
