<?xml version="1.0" encoding="iso-8859-1"?>
<!-- Generator: Adobe Illustrator 18.1.1, SVG Export Plug-In . SVG Version: 6.00 Build 0)  -->
<svg version="1.1" id="Capa_1" xmlns="http://www.w3.org/2000/svg" xmlns:xlink="http://www.w3.org/1999/xlink" x="0px" y="0px"
	 viewBox="0 0 472 472" style="enable-background:new 0 0 472 472;" xml:space="preserve">
<g>
	<path style="fill:#010002;" d="M400,390V41c0-10.667-4-20.167-12-28.5S370.333,0,359,0H113c-11.333,0-21,4.167-29,12.5
		S72,30.333,72,41v390c0,10.667,4,20.167,12,28.5s17.667,12.5,29,12.5h246c8.667,0,15.333-0.333,20-1s9.333-2.5,14-5.5
		s7-7.833,7-14.5v-10H123c-5.333,0-10-2-14-6s-6-9-6-15v-30H400z M123,82c0-2.667,1-5,3-7s4.667-3,8-3h204c3.333,0,6,1,8,3
		s3,4.333,3,7v21c0,2.667-1,5-3,7s-4.667,3-8,3H134c-3.333,0-6-1-8-3s-3-4.333-3-7V82z M123,164c0-2.667,1-5,3-7s4.667-3,8-3h204
		c3.333,0,6,1,8,3s3,4.333,3,7v21c0,2.667-1,5-3,7s-4.667,3-8,3H134c-3.333,0-6-1-8-3s-3-4.333-3-7V164z"/>
</g>
<g>
</g>
<g>
</g>
<g>
</g>
<g>
</g>
<g>
</g>
<g>
</g>
<g>
</g>
<g>
</g>
<g>
</g>
<g>
</g>
<g>
</g>
<g>
</g>
<g>
</g>
<g>
</g>
<g>
</g>
</svg>
