<?xml version="1.0" encoding="iso-8859-1"?>
<!-- Generator: Adobe Illustrator 18.1.1, SVG Export Plug-In . SVG Version: 6.00 Build 0)  -->
<svg version="1.1" id="Capa_1" xmlns="http://www.w3.org/2000/svg" xmlns:xlink="http://www.w3.org/1999/xlink" x="0px" y="0px"
	 viewBox="0 0 492 492" style="enable-background:new 0 0 492 492;" xml:space="preserve">
<g>
	<g>
		<path style="fill:#010002;" d="M469.5,161c-15-27.333-35.833-48.833-62.5-64.5S350.5,69.333,317.5,62S247.667,51,207,51
			c-30.667,0-59.5,5.667-86.5,17s-49,25.333-66,42s-30.333,33.667-40,51S0,193.667,0,207c0,27.333,6.667,49.333,20,66
			s32.667,25,58,25c26.667,0,46.167,3.833,58.5,11.5S155,330.667,155,350c0,26,8.667,47.667,26,65s39,26,65,26
			c79.333,0,140.167-18,182.5-54S492,308.333,492,259C492,221,484.5,188.333,469.5,161z M107.5,236.5c-6.333,6.333-14,9.5-23,9.5
			s-16.667-3.167-23-9.5s-9.5-14-9.5-23s3.167-16.667,9.5-23c6.333-6.333,14-9.5,23-9.5s16.667,3.167,23,9.5s9.5,14,9.5,23
			S113.833,230.167,107.5,236.5z M174.5,168c-9,0-16.5-3.167-22.5-9.5s-9-14-9-23s3-16.667,9-23s13.5-9.5,22.5-9.5
			s16.667,3.167,23,9.5s9.5,14,9.5,23s-3.167,16.667-9.5,23S183.5,168,174.5,168z M273.5,377.5c-7.668,7.667-16.834,11.5-27.5,11.5
			c-10.667,0-19.833-3.833-27.5-11.5S207,360.667,207,350s3.833-19.834,11.5-27.5c7.667-7.667,16.834-11.5,27.5-11.5
			c10.667,0,19.833,3.833,27.5,11.5S285,339.333,285,350S281.167,369.833,273.5,377.5z M301.5,158.5c-6.333,6.333-14,9.5-23,9.5
			s-16.667-3.167-23-9.5s-9.5-14-9.5-23s3.167-16.667,9.5-23s14-9.5,23-9.5s16.667,3.167,23,9.5s9.5,14,9.5,23
			S307.833,152.167,301.5,158.5z M404.5,210.5c-6.333,6.333-14,9.5-23,9.5s-16.667-3.167-23-9.5s-9.5-14-9.5-23s3.167-16.667,9.5-23
			s14-9.5,23-9.5s16.667,3.167,23,9.5s9.5,14,9.5,23S410.833,204.167,404.5,210.5z"/>
	</g>
</g>
<g>
</g>
<g>
</g>
<g>
</g>
<g>
</g>
<g>
</g>
<g>
</g>
<g>
</g>
<g>
</g>
<g>
</g>
<g>
</g>
<g>
</g>
<g>
</g>
<g>
</g>
<g>
</g>
<g>
</g>
</svg>
