<?xml version="1.0" encoding="iso-8859-1"?>
<!-- Generator: Adobe Illustrator 18.1.1, SVG Export Plug-In . SVG Version: 6.00 Build 0)  -->
<svg version="1.1" id="Capa_1" xmlns="http://www.w3.org/2000/svg" xmlns:xlink="http://www.w3.org/1999/xlink" x="0px" y="0px"
	 viewBox="0 0 492 492" style="enable-background:new 0 0 492 492;" xml:space="preserve">
<g>
	<g>
		<g>
			<path style="fill:#010002;" d="M420,72C372,24,314,0,246,0S120,24,72,72S0,178,0,246s24,126,72,174s106,72,174,72s126-24,174-72
				s72-106,72-174S468,120,420,72z M391,391c-40,40-88.333,60-145,60s-105-20-145-60s-60-88.333-60-145s20-105,60-145
				s88.333-60,145-60s105,20,145,60s60,88.333,60,145S431,351,391,391z"/>
			<path style="fill:#010002;" d="M264,106l-18-32c-48,82.667-72,136.667-72,162v20c0,25.333,24.333,80,73,164
				c47.333-82.667,71-136.333,71-161v-23c0-11.333-6-30.5-18-57.5S276,127.333,264,106z M275,275c-8,8-17.667,12-29,12s-21-4-29-12
				s-12-17.667-12-29s4-21,12-29s17.667-12,29-12s21,4,29,12s12,17.667,12,29S283,267,275,275z"/>
		</g>
	</g>
</g>
<g>
</g>
<g>
</g>
<g>
</g>
<g>
</g>
<g>
</g>
<g>
</g>
<g>
</g>
<g>
</g>
<g>
</g>
<g>
</g>
<g>
</g>
<g>
</g>
<g>
</g>
<g>
</g>
<g>
</g>
</svg>
