<?xml version="1.0" encoding="iso-8859-1"?>
<!-- Generator: Adobe Illustrator 18.1.1, SVG Export Plug-In . SVG Version: 6.00 Build 0)  -->
<svg version="1.1" id="Capa_1" xmlns="http://www.w3.org/2000/svg" xmlns:xlink="http://www.w3.org/1999/xlink" x="0px" y="0px"
	 viewBox="0 0 473 473" style="enable-background:new 0 0 473 473;" xml:space="preserve">
<g>
	<g>
		<path style="fill:#010002;" d="M141,217.5c-0.667-10-3.667-17.667-9-23c-5.333-6-12-9-20-9c-22.667,0-34,17.667-34,53
			c0,32.667,11.333,49,34,49c10,0,17.333-2.333,22-7s7.667-12.334,9-23h79c-6,54.667-42.667,82-110,82
			c-32.667,0-59.5-8.833-80.5-26.5S0,270.167,0,237.5s10.333-58.167,31-76.5s47.667-27.5,81-27.5c29.333,0,54,6.667,74,20
			s31.333,34.667,34,64H141z"/>
		<path style="fill:#010002;" d="M392,217.5c-0.667-10-3.667-17.667-9-23c-5.333-6-12-9-20-9c-22.667,0-34,17.667-34,53
			c0,32.667,11.333,49,34,49c10,0,17.333-2.333,22-7s7.333-12.334,8-23h80c-6.667,54.667-43.334,82-110,82
			c-32.667,0-59.5-8.833-80.5-26.5S251,270.167,251,237.5s10.333-58.167,31-76.5s47.667-27.5,81-27.5c29.333,0,54,6.667,74,20
			s31.333,34.667,34,64H392z"/>
	</g>
</g>
<g>
</g>
<g>
</g>
<g>
</g>
<g>
</g>
<g>
</g>
<g>
</g>
<g>
</g>
<g>
</g>
<g>
</g>
<g>
</g>
<g>
</g>
<g>
</g>
<g>
</g>
<g>
</g>
<g>
</g>
</svg>
