<?xml version="1.0" encoding="iso-8859-1"?>
<!-- Generator: Adobe Illustrator 18.1.1, SVG Export Plug-In . SVG Version: 6.00 Build 0)  -->
<svg version="1.1" id="Capa_1" xmlns="http://www.w3.org/2000/svg" xmlns:xlink="http://www.w3.org/1999/xlink" x="0px" y="0px"
	 viewBox="0 0 492 492" style="enable-background:new 0 0 492 492;" xml:space="preserve">
<g>
	<g>
		<path style="fill:#010002;" d="M424,353c-10.667,0-20.667,2.333-30,7c-10,4-20,6-30,6s-20-2-30-6c-10-4.667-20.333-7-31-7
			s-20.667,2.333-30,7c-10,4-20.167,6-30.5,6s-20.167-2-29.5-6c-10-4.667-20.333-7-31-7s-21,2.333-31,7c-9.333,4-19.167,6-29.5,6
			s-20.167-2-29.5-6c-10-4.667-20.333-7-31-7s-21,2.333-31,7c-9.333,4-19.333,6-30,6v44c10.667,0,20.667-2,30-6
			c10-4.667,20.333-7,31-7s21,2.333,31,7c9.333,4,19.167,6,29.5,6s20.166-2,29.5-6c10-4.667,20.333-7,31-7s21,2.333,31,7
			c9.333,4,19.166,6,29.5,6c10.333,0,20.167-2,29.5-6c10-4.667,20.333-7,31-7s21,2.333,31,7c9.333,4,19.167,6,29.5,6
			s20.167-2,29.5-6c10-4.667,20.333-7,31-7c10,0,20,2.333,30,7c9.333,4,18.667,6,28,6v-44c-9.332,0-18.665-2-28-6
			C444,355.333,434,353,424,353z"/>
		<path style="fill:#010002;" d="M61,313c10.667,0,21,2,31,6c9.333,4,19.333,6,30,6c10,0,19.667-2,29-6c10-4.667,20.333-7,31-7
			s21,2.333,31,7c9.333,4,19.167,6,29.5,6c10.334,0,20.168-2,29.5-6c10-4.667,20.333-7,31-7s21,2.333,31,7c9.333,4,19.333,6,30,6
			l9-1c9.336-2,14.67-3,16-3v-1c32-12.667,62.667-39,92-79l11-15H1L0,327c9.333,0,19.333-2.333,30-7S51,313,61,313z"/>
		<path style="fill:#010002;" d="M385,106c-4-8-9.5-13.833-16.5-17.5S355,82.667,349,82h-8H0v123h427L385,106z M82,178
			c0,4.667-3,7-9,7H34c-8.667,0-13-2.333-13-7v-58c0-4.667,4.333-7,13-7h39c6,0,9,2.333,9,7V178z M164,178c0,4.667-3,7-9,7h-39
			c-8.667,0-13-2.333-13-7v-58c0-4.667,4.333-7,13-7h39c6,0,9,2.333,9,7V178z M246,178c0,4.667-3,7-9,7h-40c-8,0-12-2.333-12-7v-58
			c0-4.667,4-7,12-7h40c6,0,9,2.333,9,7V178z M275,113h71h1c14,0,22.667,3.667,26,11l27,61h-93L275,113z"/>
	</g>
</g>
<g>
</g>
<g>
</g>
<g>
</g>
<g>
</g>
<g>
</g>
<g>
</g>
<g>
</g>
<g>
</g>
<g>
</g>
<g>
</g>
<g>
</g>
<g>
</g>
<g>
</g>
<g>
</g>
<g>
</g>
</svg>
