<?xml version="1.0" encoding="iso-8859-1"?>
<!-- Generator: Adobe Illustrator 18.1.1, SVG Export Plug-In . SVG Version: 6.00 Build 0)  -->
<svg version="1.1" id="Capa_1" xmlns="http://www.w3.org/2000/svg" xmlns:xlink="http://www.w3.org/1999/xlink" x="0px" y="0px"
	 viewBox="0 0 492 492" style="enable-background:new 0 0 492 492;" xml:space="preserve">
<g>
	<g>
		<g>
			<path style="fill:#010002;" d="M77.5,295c-10.333,0-19,3.667-26,11c-7,7.334-10.5,16.167-10.5,26.5s3.5,19,10.5,26
				s15.667,10.5,26,10.5s19-3.5,26-10.5s10.5-15.667,10.5-26s-3.5-19.167-10.5-26.5S87.833,295,77.5,295z M90.5,345.5
				c-3.667,3.667-8,5.5-13,5.5s-9.333-1.833-13-5.5s-5.5-8-5.5-13s1.833-9.333,5.5-13c3.667-3.667,8-5.5,13-5.5s9.333,1.833,13,5.5
				s5.5,8,5.5,13S94.167,341.833,90.5,345.5z"/>
			<path style="fill:#010002;" d="M400,295c-10,0-18.5,3.667-25.5,11c-7,7.334-10.5,16.167-10.5,26.5s3.5,19,10.5,26
				S390,369,400,369s18.667-3.5,26-10.5s11-15.667,11-26s-3.667-19.167-11-26.5S410,295,400,295z M413.5,345.5
				c-3.667,3.667-8,5.5-13,5.5s-9.333-1.833-13-5.5s-5.5-8-5.5-13s1.833-9.333,5.5-13s8-5.5,13-5.5s9.333,1.833,13,5.5s5.5,8,5.5,13
				S417.167,341.833,413.5,345.5z"/>
			<path style="fill:#010002;" d="M482,123H159c-7.333,0-11,3.667-11,11v92h-20v-57c0-6.667-3.333-10-10-10H49
				c-6.667,0-12.333,2-17,6s-7.333,9.333-8,16v-1l-11,61v1c-8.667,1.333-13,6.333-13,15c0,0.667,0.333,1.667,1,3H0l15,69h16v-1
				c0-12,4.5-22.333,13.5-31s19.667-13,32-13s23,4.333,32,13s13.5,19,13.5,31v1h232v-1c0-12,4.5-22.333,13.5-31s19.667-13,32-13
				s23,4.333,32,13s13.5,19,13.5,31v1h47V134C492,126.667,488.667,123,482,123z M92,176v50H31l8-43c0.667-6,4-9,10-9h43V176z"/>
		</g>
	</g>
</g>
<g>
</g>
<g>
</g>
<g>
</g>
<g>
</g>
<g>
</g>
<g>
</g>
<g>
</g>
<g>
</g>
<g>
</g>
<g>
</g>
<g>
</g>
<g>
</g>
<g>
</g>
<g>
</g>
<g>
</g>
</svg>
