<?xml version="1.0" encoding="iso-8859-1"?>
<!-- Generator: Adobe Illustrator 18.1.1, SVG Export Plug-In . SVG Version: 6.00 Build 0)  -->
<svg version="1.1" id="Capa_1" xmlns="http://www.w3.org/2000/svg" xmlns:xlink="http://www.w3.org/1999/xlink" x="0px" y="0px"
	 viewBox="0 0 440 440" style="enable-background:new 0 0 440 440;" xml:space="preserve">
<g>
	<g>
		<path style="fill:#010002;" d="M438,138L374,33c-6-6.667-9.667-10-11-10H87L4,134l-1,1v1c-0.667,0.667-1.333,1.667-2,3v1
			c-0.667,2-1,4-1,6c0,1.333,0.333,2.667,1,4v1l2,4l201,254v1l4,4h1c1.333,0.667,3,1.333,5,2l1,1h5h6l1-1l4-2h1
			c1.333-1.333,2.333-2.667,3-4l202-255c0.667-0.667,1.333-2,2-4c0.667-1.335,1-2.669,1-4v-1v-1v-2v-1
			C439.326,140,438.659,138.667,438,138z M329,64l-31,56l-41-56H329z M264,136h-88l44-60L264,136z M183,64l-38,52l-19-52H183z
			 M94,84l19,52H56L94,84z M57,167h68l46,143L57,167z M220,339l-55-172h110L220,339z M269,310l46-143h68L269,310z M332,136l29-52
			l28,52H332z"/>
	</g>
</g>
<g>
</g>
<g>
</g>
<g>
</g>
<g>
</g>
<g>
</g>
<g>
</g>
<g>
</g>
<g>
</g>
<g>
</g>
<g>
</g>
<g>
</g>
<g>
</g>
<g>
</g>
<g>
</g>
<g>
</g>
</svg>
