<?xml version="1.0" encoding="iso-8859-1"?>
<!-- Generator: Adobe Illustrator 18.1.1, SVG Export Plug-In . SVG Version: 6.00 Build 0)  -->
<svg version="1.1" id="Capa_1" xmlns="http://www.w3.org/2000/svg" xmlns:xlink="http://www.w3.org/1999/xlink" x="0px" y="0px"
	 viewBox="0 0 492 492" style="enable-background:new 0 0 492 492;" xml:space="preserve">
<g>
	<g>
		<polygon style="fill:#010002;" points="0,41.167 78,122.167 108,95.167 81,41.167 		"/>
		<path style="fill:#010002;" d="M352,268.167c7.333,2,14.5,1,21.5-3s11.5-9.666,13.5-17c2-7.333,1-14.5-3-21.5s-9.667-11.5-17-13.5
			l-11-3l-15,54L352,268.167z"/>
		<path style="fill:#010002;" d="M343,206.167l-94-26c-7.333-2-12,0.667-14,8l-8,32c-2,7.333,0.333,12,7,14l94,27L343,206.167z"/>
		<path style="fill:#010002;" d="M357,296.167c-7.333-7.332-16-12.332-26-15l-113-32l-69-125c-4.667-7.333-10.667-12-18-14
			s-14.5-1-21.5,3s-11.5,9.667-13.5,17s-1.333,14.667,2,22l87,154c4.667,8,13,14,25,18l158,45l74,75c2.667,2.666,5.667,4.666,9,6
			c5.337,1.334,10.67,0.666,16-2c5.335-2.666,8.669-7,10-13c2-8,0-15-6-21L357,296.167z"/>
		<path style="fill:#010002;" d="M442,328.167l16,21l34-37l-28-16c1.326-10-0.841-19.166-6.5-27.5
			c-5.667-8.332-13.5-14.166-23.5-17.5c-10.668-2.666-20.835-1.166-30.5,4.5c-9.667,5.668-16,13.834-19,24.5
			c-3,10.668-1.833,21,3.5,31s13.333,16.668,24,20C422,333.834,432,332.834,442,328.167z"/>
	</g>
</g>
<g>
</g>
<g>
</g>
<g>
</g>
<g>
</g>
<g>
</g>
<g>
</g>
<g>
</g>
<g>
</g>
<g>
</g>
<g>
</g>
<g>
</g>
<g>
</g>
<g>
</g>
<g>
</g>
<g>
</g>
</svg>
