<?xml version="1.0" encoding="iso-8859-1"?>
<!-- Generator: Adobe Illustrator 18.1.1, SVG Export Plug-In . SVG Version: 6.00 Build 0)  -->
<svg version="1.1" id="Capa_1" xmlns="http://www.w3.org/2000/svg" xmlns:xlink="http://www.w3.org/1999/xlink" x="0px" y="0px"
	 viewBox="0 0 492 492" style="enable-background:new 0 0 492 492;" xml:space="preserve">
<g>
	<g>
		<path style="fill:#010002;" d="M349.5,96.938c9.667,0,17.833-3.5,24.5-10.5s10-15.333,10-25s-3.333-18-10-25
			c-6.668-7-14.835-10.5-24.5-10.5c-9.668,0-17.835,3.5-24.5,10.5c-6.667,7-10,15.333-10,25s3.333,18,10,25
			S339.833,96.938,349.5,96.938z"/>
		<path style="fill:#010002;" d="M375,104.938h-50l-87-89c-3.333-3.34-7.5-5.174-12.5-5.5s-9.167,1.34-12.5,5
			c-3.335,3.667-5.168,8-5.5,13c-0.333,5,1.167,9.167,4.5,12.5l91,93v309c0,5.334,1.833,10,5.5,14s8.167,6,13.5,6s10-2,14-6
			s6-8.666,6-14v-168h16v168c0,5.334,1.833,10,5.5,14s8.167,6,13.5,6s10-2,14-6s6-8.666,6-14v-309l90-93c3.333-3.333,5-7.5,5-12.5
			s-1.833-9.333-5.5-13s-8-5.333-13-5s-9.167,2.167-12.5,5.5L375,104.938z"/>
		<path style="fill:#010002;" d="M192,240.938c-6-6-13-9-21-9H98c-8,0-14.667,3-20,9l-73,75c-3.333,4-5,8.5-5,13.5
			s1.833,9.166,5.5,12.5c3.667,3.332,8,5,13,5s9.167-2,12.5-6l56-58v78H24c-6,0-11,2-15,6s-6,9-6,14.998c0,6.668,2,12,6,16l72,74
			c2.667,4.668,6.833,7.668,12.5,9c5.667,1.334,10.833,0.334,15.5-3c5.333-2.666,8.833-7,10.5-13c1.663-6,0.829-11.666-2.5-17
			l-41-42h1h117l-41,42c-2.667,5.334-3.333,11-2,17s4.667,10.668,10,14c5.333,2.668,10.667,3.334,16,2c5.333-1.332,9.667-4.332,13-9
			l71-74c4.667-4,7-9,7-15c0-5.998-2.167-11.166-6.5-15.498c-4.333-4.334-9.167-6.5-14.5-6.5h-64v-77l56,57c3.333,4,7.333,6,12,6
			s8.833-1.668,12.5-5c3.667-3.334,5.5-7.5,5.5-12.5s-1.667-9.5-5-13.5L192,240.938L192,240.938z"/>
		<path style="fill:#010002;" d="M135.5,224.938c9.667,0,17.834-3.5,24.5-10.5c6.667-7,10-15.5,10-25.5s-3.333-18.5-10-25.5
			s-14.833-10.5-24.5-10.5s-17.833,3.5-24.5,10.5s-10,15.5-10,25.5s3.333,18.5,10,25.5S125.833,224.938,135.5,224.938z"/>
	</g>
</g>
<g>
</g>
<g>
</g>
<g>
</g>
<g>
</g>
<g>
</g>
<g>
</g>
<g>
</g>
<g>
</g>
<g>
</g>
<g>
</g>
<g>
</g>
<g>
</g>
<g>
</g>
<g>
</g>
<g>
</g>
</svg>
