<?xml version="1.0" encoding="iso-8859-1"?>
<!-- Generator: Adobe Illustrator 18.1.1, SVG Export Plug-In . SVG Version: 6.00 Build 0)  -->
<svg version="1.1" id="Capa_1" xmlns="http://www.w3.org/2000/svg" xmlns:xlink="http://www.w3.org/1999/xlink" x="0px" y="0px"
	 viewBox="0 0 492.073 492.073" style="enable-background:new 0 0 492.073 492.073;" xml:space="preserve">
<g>
	<g>
		<g>
			<path style="fill:#010002;" d="M371.574,225.564c-38.333,6.333-69.167,13.333-92.503,21c-23.332,7.668-44.833,16.668-64.5,27
				c-19.666,10.334-32.333,17.668-38,22c-5.666,4.334-9.833,7.5-12.5,9.5l-3,4c0,2,1,3.668,3,5l85,40c3.334,1.334,5,3.666,5,7
				c0,6-2.666,9-8,9l-94-1c-2,0-3,1.334-3,4l2,2c83.333,66,197.001,98,341.001,96h0.001v-254
				C450.074,216.397,409.908,219.231,371.574,225.564z M303.072,322.064c-4,4-8.668,6-14,6c-5.334,0-10-2-14-6s-6-8.666-6-14
				c0-5.332,2-10,6-14s8.67-6,14-6c5.332,0,10,2,14,6c4.001,4,6.001,8.668,6.001,14
				C309.072,313.398,307.072,318.064,303.072,322.064z"/>
			<path style="fill:#010002;" d="M207.071,161.064c6,0,11.333-2.167,16-6.5s7-9.833,7-16.5c-0.667-2-1-3.667-1-5
				c76.667-62.667,148.334-94.333,215.001-95c11.332,0,26,2,44,6l4,1v-19h-3c-17.331-4-32.668-5.667-46-5
				c-72,0.667-147.669,33-227.001,97l-9-3c-6.667,0-12.333,2.333-17,7s-7,10-7,16c0.667,3.333,1.334,5.667,2,7l-66,61l-55,51
				c-5.333,5.334-11.667,7.834-19,7.5c-7.333-0.332-13.333-3.166-18-8.5c-4.667-5.332-7-11.333-7-18c0-7.333,2.667-13.667,8-19
				c3.333-1.333,6-2.667,8-4l2,19l46-57l-50,17c-9.333,2.669-15.667,6.335-19,11c-9.333,8-14.333,18.333-15,31s3.333,23.667,12,33
				c8.667,9.334,19.333,14.168,32,14.5c12.667,0.334,23.667-3.5,33-11.5l1-1l52-49c43.333-40.667,65.667-61.667,67-63
				L207.071,161.064z"/>
		</g>
	</g>
</g>
<g>
</g>
<g>
</g>
<g>
</g>
<g>
</g>
<g>
</g>
<g>
</g>
<g>
</g>
<g>
</g>
<g>
</g>
<g>
</g>
<g>
</g>
<g>
</g>
<g>
</g>
<g>
</g>
<g>
</g>
</svg>
