<?xml version="1.0" encoding="iso-8859-1"?>
<!-- Generator: Adobe Illustrator 18.1.1, SVG Export Plug-In . SVG Version: 6.00 Build 0)  -->
<svg version="1.1" id="Capa_1" xmlns="http://www.w3.org/2000/svg" xmlns:xlink="http://www.w3.org/1999/xlink" x="0px" y="0px"
	 viewBox="0 0 492 492" style="enable-background:new 0 0 492 492;" xml:space="preserve">
<g>
	<g>
		<g>
			<path style="fill:#010002;" d="M483,248.529c0-4-2-6-6-6c-0.667,0-1.333,0.333-2,1l-72,37c-49.333-20-96.166-33.5-140.5-40.5
				c-44.333-7-80-9-107-6s-52,9-75,18s-37.667,15.833-44,20.5c-6.333,4.666-11.167,8.333-14.5,11c-0.667,0.667-1,1.667-1,3
				c0,0.666,0.333,1.333,1,2l46,23c1.333,1.333,2,3,2,5c0,2.667-1.333,4-4,4H16c-1.333,0-2,0.667-2,2c0,0.667,0.333,1,1,1
				c25.333,22,56,37.333,92,46s70.667,11.667,104,9c33.333-2.666,64.667-7.333,94-14s53-13.167,71-19.5s27-9.833,27-10.5l72,38h2
				c4,0,6-2,6-6c0-0.667-0.333-1.667-1-3l-42-56l42-56C482.667,250.196,483,249.196,483,248.529z M107,295.529
				c-3.333,3.333-7.333,5-12,5s-8.667-1.667-12-5s-5-7.666-5-13c0-5.333,1.667-9.666,5-13c3.333-3.333,7.333-5,12-5
				s8.667,1.667,12,5s5,7.667,5,13S110.333,292.196,107,295.529z"/>
			<path style="fill:#010002;" d="M483.5,121.529c-5.667-6-12.5-9-20.5-9H318v62h145c8,0,14.833-3,20.5-9s8.5-13.333,8.5-22
				S489.167,127.529,483.5,121.529z"/>
			<path style="fill:#010002;" d="M64,150.529l8,16l13-11l10,14l13-11l10,14l12-12l11,13l12-12l11,12l12-12l11,12l12-12l11,12l12-12
				l12,12l11-12l12,12l11-12l12,12l14-12l13,12v-61H0c8.667,15.333,25.333,30,50,44L64,150.529z"/>
		</g>
	</g>
</g>
<g>
</g>
<g>
</g>
<g>
</g>
<g>
</g>
<g>
</g>
<g>
</g>
<g>
</g>
<g>
</g>
<g>
</g>
<g>
</g>
<g>
</g>
<g>
</g>
<g>
</g>
<g>
</g>
<g>
</g>
</svg>
