<?xml version="1.0" encoding="iso-8859-1"?>
<!-- Generator: Adobe Illustrator 18.1.1, SVG Export Plug-In . SVG Version: 6.00 Build 0)  -->
<svg version="1.1" id="Capa_1" xmlns="http://www.w3.org/2000/svg" xmlns:xlink="http://www.w3.org/1999/xlink" x="0px" y="0px"
	 viewBox="0 0 148.508 148.508" style="enable-background:new 0 0 148.508 148.508;" xml:space="preserve">
<g>
	<path style="fill:#010002;" d="M129.795,100.454c3.822,0,7.143-1.459,9.961-4.377c2.816-2.918,4.225-6.39,4.225-10.412
		c0-4.025-1.408-7.445-4.225-10.264c-2.818-2.818-6.139-4.226-9.961-4.226c-3.824,0-7.145,1.407-9.961,4.226
		c-2.818,2.816-4.227,6.237-4.227,10.264c0,4.023,1.408,7.496,4.227,10.412C122.65,98.995,125.971,100.454,129.795,100.454z"/>
	<path style="fill:#010002;" d="M140.66,133.053c0.604,0.201,1.107,0.303,1.51,0.303c1.811,0,3.32-0.654,4.527-1.964
		c1.207-1.308,1.811-2.866,1.811-4.678c0-3.019-1.309-5.132-3.924-6.339l-19.619-7.85l-14.188-26.26
		c-0.805-1.812-2.615-3.221-5.434-4.227L58.86,62.42L31.089,13.822c-1.811-3.019-4.426-4.527-7.848-4.527
		c-2.615,0-4.829,0.956-6.641,2.868c-1.811,1.912-2.717,4.175-2.717,6.792c0,1.61,0.403,3.119,1.208,4.528l34.411,60.369
		l-22.035-9.057l-5.434,3.924l87.234,35.619l3.623,5.734c0.805,2.012,2.615,3.521,5.434,4.526l10.865,4.228
		c-2.012,2.213-4.527,3.621-7.547,4.226c-3.018,0.604-5.131,0.806-6.338,0.604c-1.207-0.202-2.213-0.402-3.02-0.604L6.036,88.68
		L0,92.303l111.985,45.578c4.428,1.609,8.402,1.762,11.924,0.453s6.439-2.768,8.752-4.377c2.314-1.609,3.473-2.516,3.473-2.717
		L140.66,133.053L140.66,133.053z"/>
</g>
<g>
</g>
<g>
</g>
<g>
</g>
<g>
</g>
<g>
</g>
<g>
</g>
<g>
</g>
<g>
</g>
<g>
</g>
<g>
</g>
<g>
</g>
<g>
</g>
<g>
</g>
<g>
</g>
<g>
</g>
</svg>
