<?xml version="1.0" encoding="iso-8859-1"?>
<!-- Generator: Adobe Illustrator 18.1.1, SVG Export Plug-In . SVG Version: 6.00 Build 0)  -->
<svg version="1.1" id="Capa_1" xmlns="http://www.w3.org/2000/svg" xmlns:xlink="http://www.w3.org/1999/xlink" x="0px" y="0px"
	 viewBox="0 0 490 490" style="enable-background:new 0 0 490 490;" xml:space="preserve">
<g>
	<g>
		<g>
			<path style="fill:#010002;" d="M246,269c-55.333,0-99.667,14-133,42v47h266v-47C345.667,283,301.333,269,246,269z"/>
			<path style="fill:#010002;" d="M490,245L245,132L0,245l41,19v29c-6.667,1.333-10,6-10,14c0,4,1.333,7.333,4,10l-14,30h50l-14-30
				c2.667-2.667,4-6,4-10c0-2.667-1.667-5.667-5-9l-5-5v-24l52,23v-2c33.333-29.333,81-44,143-44s109.667,14.667,143,44v2L490,245z"
				/>
		</g>
	</g>
</g>
<g>
</g>
<g>
</g>
<g>
</g>
<g>
</g>
<g>
</g>
<g>
</g>
<g>
</g>
<g>
</g>
<g>
</g>
<g>
</g>
<g>
</g>
<g>
</g>
<g>
</g>
<g>
</g>
<g>
</g>
</svg>
