<?xml version="1.0" encoding="iso-8859-1"?>
<!-- Generator: Adobe Illustrator 18.1.1, SVG Export Plug-In . SVG Version: 6.00 Build 0)  -->
<svg version="1.1" id="Capa_1" xmlns="http://www.w3.org/2000/svg" xmlns:xlink="http://www.w3.org/1999/xlink" x="0px" y="0px"
	 viewBox="0 0 492 492" style="enable-background:new 0 0 492 492;" xml:space="preserve">
<g>
	<g>
		<path style="fill:#010002;" d="M482,67.154c-61.333-23.333-112.333-35-153-35c-17.333,0-37.333,2.5-60,7.5s-41.333,10.167-56,15.5
			l-21,7c-6.667,2.679-13.333,4.346-20,5l-162,17c-6.667,1.333-10,5.333-10,12v85c0,6.667,3.333,10.667,10,12l162,26
			c6.667,1.333,13.333,3.333,20,6l110,28c7.333,1.334,12,5,14,11l65,188c2,6.666,6.333,9,13,7l69-23c6.667-2.666,8.667-7,6-13
			l-45-131c-2-6-3-9.332-3-10c-2-8-2.833-14.166-2.5-18.5c0.346-4.332,1.18-7.832,2.5-10.5l1-2.999c4.667-5.333,10.333-9,17-11
			l44-18c6-3.333,9-8.333,9-15V81.154C492,74.487,488.667,69.821,482,67.154z M376.5,169.154c-9,8.667-19.833,13-32.5,13
			s-23.667-4.333-33-13s-14-19.333-14-32s4.667-23.5,14-32.5s20.333-13.5,33-13.5s23.5,4.5,32.5,13.5s13.5,19.833,13.5,32.5
			C390,149.822,385.5,160.489,376.5,169.154z"/>
	</g>
</g>
<g>
</g>
<g>
</g>
<g>
</g>
<g>
</g>
<g>
</g>
<g>
</g>
<g>
</g>
<g>
</g>
<g>
</g>
<g>
</g>
<g>
</g>
<g>
</g>
<g>
</g>
<g>
</g>
<g>
</g>
</svg>
