<?xml version="1.0" encoding="iso-8859-1"?>
<!-- Generator: Adobe Illustrator 18.1.1, SVG Export Plug-In . SVG Version: 6.00 Build 0)  -->
<svg version="1.1" id="Capa_1" xmlns="http://www.w3.org/2000/svg" xmlns:xlink="http://www.w3.org/1999/xlink" x="0px" y="0px"
	 viewBox="0 0 492 492" style="enable-background:new 0 0 492 492;" xml:space="preserve">
<g>
	<g>
		<g>
			<path style="fill:#090509;" d="M461,103H113c-2.667,0-5,1-7,3s-3,4.333-3,7v297c0,2.667,1,5,3,7s4.333,3,7,3h348c2.667,0,5-1,7-3
				s3-4.333,3-7V113c0-2.667-1-5-3-7S463.667,103,461,103z M411.5,254c-0.333,1.333-1.833,2-4.5,2h-7c-3.333,0-6,1-8,3s-3,4.333-3,7
				v113c0,2.667-1,5-3,7s-4.333,3-7,3h-51c-2.667,0-5-1-7-3s-3-4.333-3-7v-82c0-2.667-1-5-3-7s-4.667-3-8-3h-41c-2.667,0-5,1-7,3
				s-3,4.333-3,7v82c0,2.667-1,5-3,7s-4.333,3-7,3h-51c-2.667,0-5-1-7-3s-3-4.333-3-7V266c0-2.667-1-5-3-7s-4.667-3-8-3h-8
				c-2.667,0-4.333-0.667-5-2s0-2.667,2-4l117-100c5.333-4.667,10.333-4.667,15,0l114,100C411,251.334,411.833,252.667,411.5,254z"
				/>
			<path style="fill:#090509;" d="M468,54c-2-2-4.333-3-7-3H92c-2.667,0-5-1-7-3s-3-4.333-3-7V10c0-2.667-1-5-3-7s-4.333-3-7-3H31
				c-2.667,0-5,1-7,3s-3,4.333-3,7v472c0,2.667,1,5,3,7s4.333,3,7,3h41c2.667,0,5-1,7-3s3-4.333,3-7V92c0-2.667,1-5,3-7s4.333-3,7-3
				h369c2.667,0,5-1,7-3s3-4.333,3-7V62C471,58.667,470,56,468,54z"/>
		</g>
	</g>
</g>
<g>
</g>
<g>
</g>
<g>
</g>
<g>
</g>
<g>
</g>
<g>
</g>
<g>
</g>
<g>
</g>
<g>
</g>
<g>
</g>
<g>
</g>
<g>
</g>
<g>
</g>
<g>
</g>
<g>
</g>
</svg>
