<?xml version="1.0" encoding="iso-8859-1"?>
<!-- Generator: Adobe Illustrator 18.1.1, SVG Export Plug-In . SVG Version: 6.00 Build 0)  -->
<svg version="1.1" id="Capa_1" xmlns="http://www.w3.org/2000/svg" xmlns:xlink="http://www.w3.org/1999/xlink" x="0px" y="0px"
	 viewBox="0 0 492 492" style="enable-background:new 0 0 492 492;" xml:space="preserve">
<g>
	<g>
		<path style="fill:#010002;" d="M376.5,237.455c-37,6-66.5,12.833-88.5,20.5c-22,7.667-42.667,16.667-62,27s-31.667,17.5-37,21.5
			l-12,9c0,0.665,0.333,1.332,1,2c0.667,0.665,1,1.332,1,2c0,2,0.667,3.667,2,5l83,39c3.333,2,5,4.333,5,7c0,6-2.667,9-8,9l-92-1
			c-2.667,0-4,1-4,3c0,0.667-0.167,1.167-0.5,1.5s-0.5,0.833-0.5,1.5c82,64.667,191.333,96,328,94v-249
			C452,228.788,413.5,231.455,376.5,237.455z M317.5,332.455c-3.667,4-8.167,6-13.5,6s-10-2-14-6s-6-8.667-6-14s2-9.833,6-13.5
			s8.667-5.5,14-5.5s9.833,1.833,13.5,5.5s5.5,8.167,5.5,13.5S321.167,328.455,317.5,332.455z"/>
		<rect y="13.455" style="fill:#010002;" width="92" height="72"/>
		<rect x="185" y="13.455" style="fill:#010002;" width="307" height="72"/>
		<path style="fill:#010002;" d="M144,121.455v-108h-11v108c-8.667,2-13,8-13,18s4.333,16.333,13,19v120c0,8-3,14.667-9,20
			s-13,8-21,8s-14.833-2.667-20.5-8s-8.5-12-8.5-20c0-4.667,0.333-8,1-10h1l10,9l-6-54l-16,37c-2,3.333-3.167,6.5-3.5,9.5
			s-0.5,5.167-0.5,6.5v2c0,11.333,4.167,21,12.5,29s18.167,12,29.5,12s21.167-4,29.5-12s12.5-17.667,12.5-29v-120
			c8.667-2.667,13-9,13-19S152.667,123.455,144,121.455z"/>
	</g>
</g>
<g>
</g>
<g>
</g>
<g>
</g>
<g>
</g>
<g>
</g>
<g>
</g>
<g>
</g>
<g>
</g>
<g>
</g>
<g>
</g>
<g>
</g>
<g>
</g>
<g>
</g>
<g>
</g>
<g>
</g>
</svg>
