<?xml version="1.0" encoding="iso-8859-1"?>
<!-- Generator: Adobe Illustrator 18.1.1, SVG Export Plug-In . SVG Version: 6.00 Build 0)  -->
<svg version="1.1" id="Capa_1" xmlns="http://www.w3.org/2000/svg" xmlns:xlink="http://www.w3.org/1999/xlink" x="0px" y="0px"
	 viewBox="0 0 482 482" style="enable-background:new 0 0 482 482;" xml:space="preserve">
<g>
	<g>
		<g>
			<path style="fill:#090509;" d="M41,448c0,8,2.833,15.667,8.5,23S62,482,70,482h340c7.333,0,14.333-3.667,21-11s10-15,10-23V103
				H41V448z M164,197.5c21.333-20.333,47-30.5,77-30.5s55.5,10.167,76.5,30.5s31.5,45,31.5,74s-10.5,53.833-31.5,74.5
				S271,377,241,377s-55.667-10.333-77-31s-32-45.5-32-74.5S142.667,217.833,164,197.5z"/>
			<path style="fill:#090509;" d="M431.5,7.5C425.167,2.5,418,0,410,0H70c-8,0-14.833,2.5-20.5,7.5S41,18.667,41,26v56h400V26
				C441,18.667,437.833,12.5,431.5,7.5z M175,62H62V21h113V62z M387,52.5c-4.667,4.333-10.167,6.5-16.5,6.5s-11.833-2.167-16.5-6.5
				c-4.667-4.334-7-9.667-7-16c0-6.337,2.333-11.67,7-16c4.667-4.333,10.167-6.5,16.5-6.5s11.833,2.167,16.5,6.5s7,9.667,7,16
				S391.667,48.167,387,52.5z"/>
		</g>
	</g>
</g>
<g>
</g>
<g>
</g>
<g>
</g>
<g>
</g>
<g>
</g>
<g>
</g>
<g>
</g>
<g>
</g>
<g>
</g>
<g>
</g>
<g>
</g>
<g>
</g>
<g>
</g>
<g>
</g>
<g>
</g>
</svg>
