<?xml version="1.0" encoding="iso-8859-1"?>
<!-- Generator: Adobe Illustrator 18.1.1, SVG Export Plug-In . SVG Version: 6.00 Build 0)  -->
<svg version="1.1" id="Capa_1" xmlns="http://www.w3.org/2000/svg" xmlns:xlink="http://www.w3.org/1999/xlink" x="0px" y="0px"
	 viewBox="0 0 492 492" style="enable-background:new 0 0 492 492;" xml:space="preserve">
<g>
	<g>
		<path style="fill:#010002;" d="M444,211c-4.667-4-8.667-6-12-6h-22v-88c0-29.334-12.167-56.167-36.5-80.5S322.333,0,293,0h-97
			c-28.667,0-54.833,12.167-78.5,36.5S82,87.667,82,117v88H58c-3.333,0-7,2-11,6s-6,7.667-6,11v261c0,6,5.667,9,17,9h374
			c12.667,0,19-3,19-9V222C451,218.667,448.667,215,444,211z M294,451h-99l21-102c-14-10-21-24-21-42c0-14,4.833-25.833,14.5-35.5
			s21.334-14.5,35-14.5c13.667,0,25.333,4.667,35,14c9.667,9.334,14.5,20.667,14.5,34c0,19.333-6.667,34-20,44L294,451z M338,205
			H154v-88c0-13.335,4-24.168,12-32.5c8-8.333,18.333-12.5,31-12.5h95c13.333,0,24.333,4.167,33,12.5s13,19.167,13,32.5V205z"/>
	</g>
</g>
<g>
</g>
<g>
</g>
<g>
</g>
<g>
</g>
<g>
</g>
<g>
</g>
<g>
</g>
<g>
</g>
<g>
</g>
<g>
</g>
<g>
</g>
<g>
</g>
<g>
</g>
<g>
</g>
<g>
</g>
</svg>
