<?xml version="1.0" encoding="iso-8859-1"?>
<!-- Generator: Adobe Illustrator 18.1.1, SVG Export Plug-In . SVG Version: 6.00 Build 0)  -->
<svg version="1.1" id="Capa_1" xmlns="http://www.w3.org/2000/svg" xmlns:xlink="http://www.w3.org/1999/xlink" x="0px" y="0px"
	 viewBox="0 0 472 472" style="enable-background:new 0 0 472 472;" xml:space="preserve">
<g>
	<g>
		<path style="fill:#010002;" d="M465.5,124c-4.333-4-9.167-6-14.5-6H328V78c0-16-4.5-30.333-13.5-43S294,16,280,16h-98
			c-14,0-25.5,6.333-34.5,19S134,62,134,78v40H21c-5.333,0-10.167,2-14.5,6S0,133,0,139v297c0,5.333,2.167,10,6.5,14s9.167,6,14.5,6
			h430c5.337,0,10.17-2,14.5-6c4.333-4,6.5-8.667,6.5-14V139C472,133,469.833,128,465.5,124z M287,426H175v-11l1.5-0.5
			c1-0.333,2.333-0.5,4-0.5h3.5l8-2c4.667-2,7.667-4,9-6c2.667-4.667,4-8.333,4-11V290c0-2-1.333-5.667-4-11c-2-2.667-4.667-5-8-7
			c-3.333-2.67-6-4.336-8-5c-1.333,0-2.833-0.167-4.5-0.5s-3-0.667-4-1L175,265v-13l83-5l-2,3v143c0,1.333,2,4.667,6,10
			c1.333,2.667,4,5,8,7c2.667,1.333,5.333,2.333,8,3c0.667,0,1.833,0.167,3.5,0.5s3,0.5,4,0.5s1.5,0.333,1.5,1V426z M191,182.5
			c0-9,3.5-16.833,10.5-23.5s15.333-10,25-10s18,3.333,25,10s10.5,14.5,10.5,23.5s-3.5,16.667-10.5,23s-15.333,9.5-25,9.5
			s-18-3.167-25-9.5S191,191.5,191,182.5z M297,118H164V78c0-6,2.5-12.667,7.5-20s9.833-11,14.5-11h83c5.333,0,11.333,3.667,18,11
			s10,14,10,20V118z"/>
	</g>
</g>
<g>
</g>
<g>
</g>
<g>
</g>
<g>
</g>
<g>
</g>
<g>
</g>
<g>
</g>
<g>
</g>
<g>
</g>
<g>
</g>
<g>
</g>
<g>
</g>
<g>
</g>
<g>
</g>
<g>
</g>
</svg>
