<?xml version="1.0" encoding="iso-8859-1"?>
<!-- Generator: Adobe Illustrator 18.1.1, SVG Export Plug-In . SVG Version: 6.00 Build 0)  -->
<svg version="1.1" id="Capa_1" xmlns="http://www.w3.org/2000/svg" xmlns:xlink="http://www.w3.org/1999/xlink" x="0px" y="0px"
	 viewBox="0 0 492 492" style="enable-background:new 0 0 492 492;" xml:space="preserve">
<g>
	<g>
		<g>
			<path style="fill:#010002;" d="M414,214l-25-105c-2.667-9.333-8-16.5-16-21.5s-16.667-6.167-26-3.5
				c-13.333,3.333-22.333,11-27,23c-15.333,38-23.667,58-25,60c-0.667,2-2,3.667-4,5l-37,16c-7.333,3.333-11,9-11,17
				c0,5.333,1.833,9.833,5.5,13.5s8.167,5.5,13.5,5.5c2,0,4.333-0.333,7-1l44-18c4.667-2.667,8.667-6.667,12-12
				c1.333-1.335,4.333-7.669,9-19l26,112v174c0,9.333,2.833,17,8.5,23s12.833,9,21.5,9s15.833-3,21.5-9s8.5-13.333,8.5-22V255
				C420,243,418,229.333,414,214z"/>
			<path style="fill:#010002;" d="M316.5,78c11,0,20.333-3.667,28-11S356,50.5,356,39.5s-3.833-20.333-11.5-28S327.5,0,316.5,0
				s-20.333,3.833-28,11.5s-11.5,17-11.5,28s3.833,20.167,11.5,27.5S305.5,78,316.5,78z"/>
			<path style="fill:#010002;" d="M243,250l-62-123c-4.667-10.667-13-16-25-16h-56c-8,0-14.667,2.833-20,8.5s-8,12.167-8,19.5v215
				v138h174V264c0-5.333-1.333-10-4-14H243z M200,421.5c-8,9-19.667,14.833-35,17.5v21h-16v-21c-13.333-1.333-24-6.167-32-14.5
				s-13.333-19.833-16-34.5l30-3c1.333,6,3.667,11.167,7,15.5s7,7.5,11,9.5v-47c-14.667-4-25.5-10.333-32.5-19S106,327,106,315
				s4-22.167,12-30.5s18.333-13.167,31-14.5v-11h16v11c12,1.333,21.667,5.333,29,12s12,15.667,14,27l-29,4
				c-2-9.333-6.667-15.333-14-18v43c18.667,5.333,31.167,11.833,37.5,19.5S212,375,212,387C212,401,208,412.5,200,421.5z"/>
			<path style="fill:#010002;" d="M165,370v44c6-1.333,10.833-4,14.5-8s5.5-9,5.5-15c0-4.667-1.5-8.833-4.5-12.5
				S172.333,372,165,370z"/>
			<path style="fill:#010002;" d="M138,301.5c-2.667,3.667-4,7.833-4,12.5c0,4,1.333,7.667,4,11s6.334,6,11,8v-39
				C144.333,295.333,140.667,297.833,138,301.5z"/>
		</g>
	</g>
</g>
<g>
</g>
<g>
</g>
<g>
</g>
<g>
</g>
<g>
</g>
<g>
</g>
<g>
</g>
<g>
</g>
<g>
</g>
<g>
</g>
<g>
</g>
<g>
</g>
<g>
</g>
<g>
</g>
<g>
</g>
</svg>
