<?xml version="1.0" encoding="iso-8859-1"?>
<!-- Generator: Adobe Illustrator 18.1.1, SVG Export Plug-In . SVG Version: 6.00 Build 0)  -->
<svg version="1.1" id="Capa_1" xmlns="http://www.w3.org/2000/svg" xmlns:xlink="http://www.w3.org/1999/xlink" x="0px" y="0px"
	 viewBox="0 0 489 489" style="enable-background:new 0 0 489 489;" xml:space="preserve">
<g>
	<g>
		<path style="fill:#010002;" d="M461,182.5c-18.668-16.667-41.334-25-68-25H96c-26.667,0-49.333,8.333-68,25s-28,37.333-28,62
			s9.333,45.333,28,62s41.333,25,68,25h297c26.667,0,49.333-8.333,68-25s28-37.334,28-62C489,219.833,479.667,199.167,461,182.5z
			 M443,292c-14,13-30.667,19.5-50,19.5H246v-133h147c19.333,0,36,6.5,50,19.5s21,28.667,21,47S457,279,443,292z"/>
	</g>
</g>
<g>
</g>
<g>
</g>
<g>
</g>
<g>
</g>
<g>
</g>
<g>
</g>
<g>
</g>
<g>
</g>
<g>
</g>
<g>
</g>
<g>
</g>
<g>
</g>
<g>
</g>
<g>
</g>
<g>
</g>
</svg>
