<?xml version="1.0" encoding="iso-8859-1"?>
<!-- Generator: Adobe Illustrator 18.1.1, SVG Export Plug-In . SVG Version: 6.00 Build 0)  -->
<svg version="1.1" id="Capa_1" xmlns="http://www.w3.org/2000/svg" xmlns:xlink="http://www.w3.org/1999/xlink" x="0px" y="0px"
	 viewBox="0 0 512.533 512.533" style="enable-background:new 0 0 512.533 512.533;" xml:space="preserve">
<g>
	<g>
		<path style="fill:#010002;" d="M492.528,273.247c-7.334,33.332-22.5,62.832-45.5,88.499c-23,25.667-50.5,43.834-82.5,54.501
			c-20,6.666-40.667,9.999-62,9.999c-41.334,0-78.833-12.166-112.5-36.499s-57.167-56.168-70.5-95.5
			c-17.333-50.668-14-99.834,10-147.501s61.333-80.167,112-97.5c48-15.333,95-13,141,7l9-18c-32-19.333-67-31.333-105-36
			s-75-1-111,11c-66.666,22.667-115.833,65.5-147.5,128.5s-36.5,128.168-14.5,195.501c17.333,52,48.333,94.166,93,126.499
			c44.667,32.334,94.667,48.501,150,48.501c28,0,55-4.334,81-13.001c49.333-16.666,89.833-45.166,121.501-85.499
			c31.666-40.333,49.504-86.168,53.504-137.5L492.528,273.247L492.528,273.247z"/>
		<polygon style="fill:#010002;" points="366.528,150.246 314.528,53.246 288.528,161.246 181.528,182.246 279.528,237.246 
			262.528,348.246 345.528,272.247 448.528,322.247 396.528,219.246 479.528,139.246 		"/>
	</g>
</g>
<g>
</g>
<g>
</g>
<g>
</g>
<g>
</g>
<g>
</g>
<g>
</g>
<g>
</g>
<g>
</g>
<g>
</g>
<g>
</g>
<g>
</g>
<g>
</g>
<g>
</g>
<g>
</g>
<g>
</g>
</svg>
