<?xml version="1.0" encoding="iso-8859-1"?>
<!-- Generator: Adobe Illustrator 18.1.1, SVG Export Plug-In . SVG Version: 6.00 Build 0)  -->
<svg version="1.1" id="Capa_1" xmlns="http://www.w3.org/2000/svg" xmlns:xlink="http://www.w3.org/1999/xlink" x="0px" y="0px"
	 viewBox="0 0 492 492" style="enable-background:new 0 0 492 492;" xml:space="preserve">
<g>
	<g>
		<path style="fill:#010002;" d="M186,92l3,4c7.333,10,17.667,15,31,15c10.667,0,19.667-3.5,27-10.5S258,85,258,75
			c0-8.667-0.333-13-1-13h14c-2.667-11.333-9.167-21-19.5-29S229.667,21,217,21c-15.333,0-28.5,5.5-39.5,16.5S161,61.667,161,77
			c0,0.667,0.667,5.667,2,15H186z"/>
		<path style="fill:#010002;" d="M331,253l-84,23v118c8.666,0,16.332-3.333,23-10l82-91L331,253z"/>
		<path style="fill:#010002;" d="M218,201c4,6,9.333,9,16,9l55,1c7.333,0,12.5-2.167,15.5-6.5c3-4.334,3-8.667,0-13
			s-8.167-6.5-15.5-6.5h-45l-45-69c-6-6.667-13.333-10-22-10c-10,0-18,3.333-24,10l-67,99c-2.667,4.667-4,9.667-4,15
			c0,10,4.333,18,13,24l90,48v82c0,6,1.833,11,5.5,15s8.5,6,14.5,6s11-2,15-6s6-9,6-15V282c2.667-11.333-2.333-19.667-15-25l-55-29
			l41-60L218,201z"/>
		<path style="fill:#010002;" d="M413,250c7.333,0,16,2.333,26,7h2c3.333,0,5-1.667,5-5c0-1.333-0.333-2.333-1-3
			c-10-8.667-22.333-13-37-13c-6,0-16.667,2-32,6l10,19C394.667,253.667,403.667,250,413,250z"/>
		<path style="fill:#010002;" d="M72,263c-10-4.667-20.667-7-32-7c-16,0-28.667,4.333-38,13c-1.333,0.667-2,1.667-2,3
			c0,3.333,1.667,5,5,5h2c10-4.667,19-7,27-7c8.667,0,17,2,25,6l108,57l-1-20L72,263z"/>
		<path style="fill:#010002;" d="M81,316c-22,0-40.833,7.667-56.5,23S1,372.667,1,394s7.833,39.5,23.5,54.5S59,471,81,471
			s40.833-7.5,56.5-22.5S161,415.333,161,394s-7.833-39.667-23.5-55S103,316,81,316z M120.5,432c-11,10.667-24.167,16-39.5,16
			s-28.333-5.333-39-16s-16-23.333-16-38s5.333-27.333,16-38s23.667-16,39-16s28.5,5.333,39.5,16s16.5,23.333,16.5,38
			S131.5,421.333,120.5,432z"/>
		<path style="fill:#010002;" d="M468.5,339c-15.667-15.333-34.5-23-56.5-23s-40.833,7.667-56.5,23S332,372.667,332,394
			s7.833,39.5,23.5,54.5S390,471,412,471s40.833-7.5,56.5-22.5S492,415.333,492,394S484.167,354.333,468.5,339z M451,432
			c-10.667,10.667-23.667,16-39,16s-28.5-5.333-39.5-16S356,408.667,356,394s5.5-27.333,16.5-38s24.167-16,39.5-16
			s28.333,5.333,39,16s16,23.333,16,38S461.667,421.333,451,432z"/>
		<path style="fill:#010002;" d="M295,224c0,6,3,9,9,9l25-1c5.333,0,9,2.333,11,7l36,72l18-6l-39-75c-5.333-10-14-15-26-15h-25
			C298,215,295,218,295,224z"/>
	</g>
</g>
<g>
</g>
<g>
</g>
<g>
</g>
<g>
</g>
<g>
</g>
<g>
</g>
<g>
</g>
<g>
</g>
<g>
</g>
<g>
</g>
<g>
</g>
<g>
</g>
<g>
</g>
<g>
</g>
<g>
</g>
</svg>
