<?xml version="1.0" encoding="iso-8859-1"?>
<!-- Generator: Adobe Illustrator 18.1.1, SVG Export Plug-In . SVG Version: 6.00 Build 0)  -->
<svg version="1.1" id="Capa_1" xmlns="http://www.w3.org/2000/svg" xmlns:xlink="http://www.w3.org/1999/xlink" x="0px" y="0px"
	 viewBox="0 0 473 473" style="enable-background:new 0 0 473 473;" xml:space="preserve">
<g>
	<g>
		<g>
			<path style="fill:#010002;" d="M194,160.5c-20.667-19-47.667-28.5-81-28.5s-60.5,9.5-81.5,28.5S0,205.333,0,238
				c0,32.666,10.667,57.833,32,75.5S80.333,340,113,340s59.5-8.833,80.5-26.5S225,270.667,225,238S214.667,179.5,194,160.5z
				 M113,288c-22.667,0-34-16.333-34-49c0-36,11.333-54,34-54s34,18,34,54C147,271.667,135.667,288,113,288z"/>
			<path style="fill:#010002;" d="M394,261c-4,18.667-14,28-30,28c-11.333,0-19.833-4.667-25.5-14s-8.5-21.666-8.5-37
				c0-36,11.333-54,34-54c8.664,0,15.33,2.333,20,7c5.333,5.331,8,11.665,8,19h80c-2.667-24.667-14.5-44-35.5-58s-45.167-21-72.5-21
				c-33.333,0-60.5,9.667-81.5,29S251,205.666,251,239c0,32,10.5,57.167,31.5,75.5S330.667,342,364,342c66.667,0,103-27,109-81H394z
				"/>
		</g>
	</g>
</g>
<g>
</g>
<g>
</g>
<g>
</g>
<g>
</g>
<g>
</g>
<g>
</g>
<g>
</g>
<g>
</g>
<g>
</g>
<g>
</g>
<g>
</g>
<g>
</g>
<g>
</g>
<g>
</g>
<g>
</g>
</svg>
