<?xml version="1.0" encoding="iso-8859-1"?>
<!-- Generator: Adobe Illustrator 18.1.1, SVG Export Plug-In . SVG Version: 6.00 Build 0)  -->
<svg version="1.1" id="Capa_1" xmlns="http://www.w3.org/2000/svg" xmlns:xlink="http://www.w3.org/1999/xlink" x="0px" y="0px"
	 viewBox="0 0 512 512" style="enable-background:new 0 0 512 512;" xml:space="preserve">
<g>
	<g>
		<g>
			<path style="fill:#010002;" d="M512,384c-10,0-19.667-2.333-29-7c-10-4.667-20.167-7-30.5-7s-20.5,2.333-30.5,7
				c-9.333,4.667-19.167,7-29.5,7s-20.167-2.333-29.5-7s-19.333-7-30-7s-20.667,2.333-30,7s-19.167,7-29.5,7s-20.167-2.333-29.5-7
				s-19.333-7-30-7s-20.667,2.333-30,7c-10,4.667-20,7-30,7s-19.667-2.333-29-7c-10-4.667-20-7-30-7c-8.667,0-18,2.333-28,7
				c-9.333,4.667-18,7-26,7v-45c8,0,16.667-2.333,26-7c10-4.667,19.667-7,29-7c10,0,20,2.333,30,7c9.333,4.667,19,7,29,7
				s19.667-2.333,29-7c10-4.667,20.167-7,30.5-7s20.167,2.333,29.5,7s19.167,7,29.5,7s20.167-2.333,29.5-7c10-4.667,20.167-7,30.5-7
				c10.335,0,20.168,2.333,29.5,7c10,4.667,20,7,30,7s19.667-2.333,29-7c10-4.667,20.167-7,30.5-7s20.5,2.333,30.5,7
				c9.333,4.667,19,7,29,7V384z"/>
			<path style="fill:#010002;" d="M392,196l87,7l-7-45l-63-4c-5.333-0.667-9.167,0.5-11.5,3.5s-3.5,5.833-3.5,8.5v4L392,196z"/>
			<path style="fill:#010002;" d="M231,186c8,0,14.833-2.833,20.5-8.5S260,165,260,157s-2.833-14.833-8.5-20.5S239,128,231,128
				s-14.667,2.833-20,8.5s-8,12.5-8,20.5s2.667,14.833,8,20.5S223,186,231,186z"/>
			<path style="fill:#010002;" d="M54,299l10-4c10-4.667,20.167-7,30.5-7s20.5,2.333,30.5,7c9.333,4,19,6,29,6s20-2,30-6
				c9.333-4.667,19.333-7,30-7s20.667,2.333,30,7c9.333,4,19.167,6,29.5,6s20.167-2,29.5-6c9.333-4.667,19.333-7,30-7
				s20.667,2.333,30,7c9.335,4,19.168,6,29.5,6c10.334,0,20.167-2,29.5-6c10-4.667,20.167-7,30.5-7s20.5,2.333,30.5,7
				c9.333,4,19,6,29,6l-10-80l-360-30l54-56l-24-2l-54,55L0,179c0,17.333,6.833,39.167,20.5,65.5S45.333,289,54,299z"/>
		</g>
	</g>
</g>
<g>
</g>
<g>
</g>
<g>
</g>
<g>
</g>
<g>
</g>
<g>
</g>
<g>
</g>
<g>
</g>
<g>
</g>
<g>
</g>
<g>
</g>
<g>
</g>
<g>
</g>
<g>
</g>
<g>
</g>
</svg>
