<?xml version="1.0" encoding="iso-8859-1"?>
<!-- Generator: Adobe Illustrator 18.1.1, SVG Export Plug-In . SVG Version: 6.00 Build 0)  -->
<svg version="1.1" id="Capa_1" xmlns="http://www.w3.org/2000/svg" xmlns:xlink="http://www.w3.org/1999/xlink" x="0px" y="0px"
	 viewBox="0 0 468 468" style="enable-background:new 0 0 468 468;" xml:space="preserve">
<g>
	<g>
		<path style="fill:#010002;" d="M466.448,192c0-24-2.834-46.667-8.5-68c-5.668-21.333-12-38.333-19-51s-14.834-24.333-23.5-35
			c-8.668-10.667-15-17.667-19-21c-4-3.34-7.334-5.674-10-7l-11-8l-12,8c-19.334,12.667-39,19-59,19c-22.668,0-42-6-58-18l-13-11
			l-13,11c-15.333,12-34.333,18-57,18c-20,0-39.667-6.333-59-19l-12-8l-11,8c-3.333,2-7.167,4.833-11.5,8.5
			c-4.333,3.668-10.833,10.835-19.5,21.5c-8.667,10.668-16.333,22.335-23,35c-6.667,12.667-12.667,29.5-18,50.5s-8,43.167-8,66.5
			c-0.667,4,0.5,13,3.5,27s9.5,33.167,19.5,57.5s22.833,48.333,38.5,72s38.5,46.833,68.5,69.5s64,39.333,102,50
			c42-12,78.5-29.333,109.5-52s54.166-45.5,69.499-68.5c15.332-23,27.5-46.667,36.5-71s14.332-43,16-56S467.114,198,466.448,192z
			 M424.446,221c-1.334,12-5.668,28.667-13,50c-7.334,21.333-17.167,41.833-29.499,61.5c-12.334,19.667-31.5,38.667-57.5,57
			s-56.334,30.833-91,37.5c-30.667-6.667-58.167-19.167-82.5-37.5s-43.167-37.667-56.5-58s-24.167-41.167-32.5-62.5
			s-13.833-38.333-16.5-51s-3.667-20.333-3-23v3c0-32,3.333-52.667,10-62h363c6.666,10,10,30.667,10,62
			C426.112,201.333,425.778,209,424.446,221z"/>
	</g>
</g>
<g>
</g>
<g>
</g>
<g>
</g>
<g>
</g>
<g>
</g>
<g>
</g>
<g>
</g>
<g>
</g>
<g>
</g>
<g>
</g>
<g>
</g>
<g>
</g>
<g>
</g>
<g>
</g>
<g>
</g>
</svg>
