<?xml version="1.0" encoding="iso-8859-1"?>
<!-- Generator: Adobe Illustrator 18.1.1, SVG Export Plug-In . SVG Version: 6.00 Build 0)  -->
<svg version="1.1" id="Capa_1" xmlns="http://www.w3.org/2000/svg" xmlns:xlink="http://www.w3.org/1999/xlink" x="0px" y="0px"
	 viewBox="0 0 472 472" style="enable-background:new 0 0 472 472;" xml:space="preserve">
<g>
	<polygon style="fill:#010002;" points="0,141 0,0 147,0 201,41 111,41 205,141 147,195 52,105 52,195 	"/>
	<polygon style="fill:#010002;" points="326,0 472,0 472,142 431,196 431,106 328,200 273,144 362,52 272,52 	"/>
	<polygon style="fill:#010002;" points="472,326 472,472 325,472 271,431 361,431 267,328 325,273 420,362 420,272 	"/>
	<polygon style="fill:#010002;" points="146,472 0,472 0,325 41,271 41,361 144,267 199,325 110,420 200,420 	"/>
</g>
<g>
</g>
<g>
</g>
<g>
</g>
<g>
</g>
<g>
</g>
<g>
</g>
<g>
</g>
<g>
</g>
<g>
</g>
<g>
</g>
<g>
</g>
<g>
</g>
<g>
</g>
<g>
</g>
<g>
</g>
</svg>
