<?xml version="1.0" encoding="iso-8859-1"?>
<!-- Generator: Adobe Illustrator 18.1.1, SVG Export Plug-In . SVG Version: 6.00 Build 0)  -->
<svg version="1.1" id="Capa_1" xmlns="http://www.w3.org/2000/svg" xmlns:xlink="http://www.w3.org/1999/xlink" x="0px" y="0px"
	 viewBox="0 0 492 492" style="enable-background:new 0 0 492 492;" xml:space="preserve">
<g>
	<g>
		<path style="fill:#010002;" d="M347.384,78c10.668,0,19.668-3.833,27-11.5c7.334-7.667,11-16.833,11-27.5s-3.666-19.833-11-27.5
			c-7.332-7.667-16.332-11.5-27-11.5s-19.834,3.833-27.5,11.5c-7.666,7.668-11.5,16.835-11.5,27.5c0,10.667,3.834,19.834,11.5,27.5
			C327.552,74.167,336.718,78,347.384,78z"/>
		<path style="fill:#010002;" d="M184.384,235l138-90c8.668-6,14.168-14.167,16.5-24.5c2.332-10.335,0.666-20.168-5-29.5
			c-5.666-9.334-13.667-15.167-24-17.5c-10.332-2.333-19.832-0.5-28.5,5.5l-102,66c-6,4-10.333,9-13,15l-106,211
			c-3.333,6.667-4,13.167-2,19.5s6.167,11.167,12.5,14.5c6.333,3.333,12.667,3.833,19,1.5s11.167-6.5,14.5-12.5L184.384,235z"/>
		<path style="fill:#010002;" d="M453.384,220c8.668-5.333,14.334-13.333,17-24c2.668-10.667,1-20.667-5-30l-13,8
			c3.334,6,4.334,12.167,3,18.5c-1.332,6.333-5,11.167-11,14.5l-424,271l9,14L453.384,220z"/>
	</g>
</g>
<g>
</g>
<g>
</g>
<g>
</g>
<g>
</g>
<g>
</g>
<g>
</g>
<g>
</g>
<g>
</g>
<g>
</g>
<g>
</g>
<g>
</g>
<g>
</g>
<g>
</g>
<g>
</g>
<g>
</g>
</svg>
