<?xml version="1.0" encoding="iso-8859-1"?>
<!-- Generator: Adobe Illustrator 18.1.1, SVG Export Plug-In . SVG Version: 6.00 Build 0)  -->
<svg version="1.1" id="Capa_1" xmlns="http://www.w3.org/2000/svg" xmlns:xlink="http://www.w3.org/1999/xlink" x="0px" y="0px"
	 viewBox="0 0 492 492" style="enable-background:new 0 0 492 492;" xml:space="preserve">
<g>
	<g>
		<path style="fill:#010002;" d="M202,117c10,0,18.667-3.667,26-11s11-16.333,11-27s-3.667-19.667-11-27s-16-11-26-11
			s-18.667,3.667-26,11s-11,16.333-11,27s3.667,19.667,11,27S192,117,202,117z"/>
		<path style="fill:#010002;" d="M245,420h175c7.333,1.333,18.333-4,33-16l39-29v34l-39,30c-8,6.667-18.333,10.667-31,12H230
			L245,420z"/>
		<polygon style="fill:#010002;" points="2,451 176,451 191,420 190,420 15,420 0,451 		"/>
		<path style="fill:#010002;" d="M220,164c0-10.667-3.833-19.833-11.5-27.5S192,125,182,125s-18.833,3.833-26.5,11.5
			c-7.667,7.668-11.5,16.835-11.5,27.5v96c0,6,1.833,12,5.5,18s7.5,9,11.5,9H79l-45,88c-0.667,2-1,4.833-1,8.5s2.167,7.334,6.5,11
			c4.333,3.667,8.167,5.5,11.5,5.5h297c9.333,0.667,20.333-4.667,33-16l79-62l-30-56c-4-8.667-14.333-14.334-31-17l-60-11l-32-57h-1
			c-4-5.333-10.333-6-19-2v1c0,0.667-0.667,2.667-2,6s-1.667,6.333-1,9l23,42l-31,54l-61-25v-20h52c0.667,0,3-1,7-3
			c4.667-2,8-5.333,10-10s2-9.667,0-15c-2.667-8-8-12-16-12h-48V164z"/>
	</g>
</g>
<g>
</g>
<g>
</g>
<g>
</g>
<g>
</g>
<g>
</g>
<g>
</g>
<g>
</g>
<g>
</g>
<g>
</g>
<g>
</g>
<g>
</g>
<g>
</g>
<g>
</g>
<g>
</g>
<g>
</g>
</svg>
