<?xml version="1.0" encoding="iso-8859-1"?>
<!-- Generator: Adobe Illustrator 18.1.1, SVG Export Plug-In . SVG Version: 6.00 Build 0)  -->
<svg version="1.1" id="Capa_1" xmlns="http://www.w3.org/2000/svg" xmlns:xlink="http://www.w3.org/1999/xlink" x="0px" y="0px"
	 viewBox="0 0 472 472" style="enable-background:new 0 0 472 472;" xml:space="preserve">
<g>
	<g>
		<path style="fill:#010002;" d="M465,234.5c-4.67-5-10.337-7.5-17-7.5L367,91c-3.333-6-9-9-17-9h-73V21c0-5.337-2-10.17-6-14.5
			c-4-4.333-9-6.5-15-6.5h-51c-5.333,0-10,2.167-14,6.5s-6,9.167-6,14.5v61h-61c-9.333,0-15.333,3-18,9L25,228
			c-6.667,0-12.5,2.333-17.5,7S0,245.333,0,252v124c0,7.333,2.5,13.167,7.5,17.5S18.333,400,25,400h27v39c0,10,3,18,9,24s14,9,24,9
			h12c10.667,0,19.5-3,26.5-9s10.5-14,10.5-24v-39h204v39c0,9.333,3.667,17.167,11,23.5s16.333,9.5,27,9.5h12c10,0,17.833-3,23.5-9
			s8.5-14,8.5-24v-39h29c6.667,0,12.167-2.167,16.5-6.5c4.333-4.334,6.5-10.167,6.5-17.5V252C472,245.333,469.667,239.5,465,234.5z
			 M88.5,317.5c-5.667,6.333-12.667,9.5-21,9.5S52,323.833,46,317.5s-9-13.667-9-22s3-15.5,9-21.5s13.167-9,21.5-9s15.333,3,21,9
			s8.5,13.167,8.5,21.5C97,303.834,94.167,311.167,88.5,317.5z M85,226l55-96c2.667-4.667,8.667-7,18-7h157c10,0,16,2.333,18,7
			l55,96H85z M427.5,317.5c-5.667,6.333-12.667,9.5-21,9.5s-15.5-3.167-21.5-9.5s-9-13.667-9-22s3-15.5,9-21.5s13.167-9,21.5-9
			s15.333,3,21,9s8.5,13.167,8.5,21.5C436,303.834,433.167,311.167,427.5,317.5z"/>
	</g>
</g>
<g>
</g>
<g>
</g>
<g>
</g>
<g>
</g>
<g>
</g>
<g>
</g>
<g>
</g>
<g>
</g>
<g>
</g>
<g>
</g>
<g>
</g>
<g>
</g>
<g>
</g>
<g>
</g>
<g>
</g>
</svg>
