<?xml version="1.0" encoding="iso-8859-1"?>
<!-- Generator: Adobe Illustrator 18.1.1, SVG Export Plug-In . SVG Version: 6.00 Build 0)  -->
<svg version="1.1" id="Capa_1" xmlns="http://www.w3.org/2000/svg" xmlns:xlink="http://www.w3.org/1999/xlink" x="0px" y="0px"
	 viewBox="0 0 491.698 491.698" style="enable-background:new 0 0 491.698 491.698;" xml:space="preserve">
<g>
	<g>
		<g>
			<path style="fill:#010002;" d="M342.698,169.849c18,0,33.334-6.333,46-19c12.668-12.667,19-27.833,19-45.5s-6.332-32.833-19-45.5
				c-12.666-12.667-28-19-46-19s-33.5,6.333-46.5,19s-19.5,27.834-19.5,45.5c0,17.667,6.5,32.834,19.5,45.5
				C309.198,163.516,324.698,169.849,342.698,169.849z"/>
			<path style="fill:#010002;" d="M403.698,195.849c-15.332-8-31.332-10.333-48-7c-6,1.333-12.666,4-20,8
				c-1.333,0.667-4,2.167-8,4.5s-9.5,7.333-16.5,15s-12.833,16.833-17.5,27.5l-60,120c-40,7.333-68.333,12.667-85,16
				c-0.667,0.667-1.667,1.334-3,2c-1.333,0.667-2.333,1.334-3,2l-15-55c-4-14,2-33,18-57c16.667-24,20.667-51.333,12-82
				c-8-28-23.667-49-47-63c-18-10-36.333-12.333-55-7c-14,4-26,11.667-36,23l-7,11c-13.333,23.333-16.167,49.167-8.5,77.5
				c7.667,28.334,23.167,49.167,46.5,62.5l6,2c0.667,0.667,4,2.333,10,5s12.667,7,20,13s12,12.333,14,19l17,63
				c0,0.667-0.833,1.334-2.5,2c-1.668,0.667-2.834,1-3.5,1l1,1c-3.333,5.333-4.667,10.333-4,15v6c2,8.667,6.833,15.667,14.5,21
				s15.834,7,24.5,5l114-22c6.667-2,11.333-4,14-6l4.5-4.5c1.667-1.667,2.833-3.5,3.5-5.5l1-2l30-59c14,64,21.333,96.667,22,98
				c-0.667,0-1.5,0.667-2.5,2s-1.833,2.333-2.5,3h155l-2-12c-0.666-4-1-6.833-1-8.5v-2.5l-5-21l-3.5-16
				c-2.332-10.667-5.666-25.333-10-44c-4.332-18.667-7.832-34.667-10.5-48c17.334,10,28,16.333,32,19l5,8v-81L403.698,195.849z
				 M98.698,276.849c-11.333,3.33-23,1.664-35-5c-17.333-10-29-25.667-35-47c-6-22-4-41.333,6-58l5-8c6-7.333,13.667-12.333,23-15
				c14-4,28-0.833,42,9.5s23.5,24.667,28.5,43s4.167,35.333-2.5,51C124.031,263.016,113.365,272.849,98.698,276.849z"/>
		</g>
	</g>
</g>
<g>
</g>
<g>
</g>
<g>
</g>
<g>
</g>
<g>
</g>
<g>
</g>
<g>
</g>
<g>
</g>
<g>
</g>
<g>
</g>
<g>
</g>
<g>
</g>
<g>
</g>
<g>
</g>
<g>
</g>
</svg>
