<?xml version="1.0" encoding="iso-8859-1"?>
<!-- Generator: Adobe Illustrator 18.1.1, SVG Export Plug-In . SVG Version: 6.00 Build 0)  -->
<svg version="1.1" id="Capa_1" xmlns="http://www.w3.org/2000/svg" xmlns:xlink="http://www.w3.org/1999/xlink" x="0px" y="0px"
	 viewBox="0 0 484.346 484.346" style="enable-background:new 0 0 484.346 484.346;" xml:space="preserve">
<g>
	<g>
		<path style="fill:#010002;" d="M421.819,67.348c-6.666-32.667-23-53.667-49-63c-18.001-6.667-41.001-5.667-69.001,3
			s-48.5,13-61.5,13s-33.5-4.333-61.5-13s-51-9.667-69-3c-26,9.333-42.667,30.333-50,63c-4,20-3.333,40,2,60
			c5.333,20,12.667,40.333,22,61s15,37.333,17,50c1.334,7.334,1.668,23.667,1,49c-0.667,25.331,0.333,50.331,3,74.999
			c11.333,81.331,29.333,121.999,54,121.999c5.333,0,10-1.5,14-4.5s7-7.834,9-14.5c2-6.668,3.5-13.168,4.5-19.5
			c1-6.334,1.333-14.834,1-25.5c-0.335-10.668-0.668-19.334-1-25.999c-0.333-6.668-0.833-15.666-1.5-27
			c-1.336-19.334-1.67-32.334-1-39c4-44.667,22.833-66.999,56.5-66.999s52.5,22.332,56.5,66.999c0.669,7.332,0.334,20.332-1,39
			c-0.67,11.332-1.338,20.332-2,27c-0.666,6.665-1,15.331-1,25.999c0,10.666,0.5,19.166,1.5,25.5c1,6.332,2.5,12.832,4.5,19.5
			c2,6.666,5,11.5,9,14.5s8.67,4.5,14,4.5c24.675,0,42.675-40.666,54.001-121.999c2.668-24,3.668-49.168,3-75.499
			c-0.648-26.334-0.314-42.5,1-48.5c2-12.667,7.668-29.334,17-50c9.334-20.667,16.668-41,22-61
			C426.172,107.348,426.505,87.348,421.819,67.348z"/>
	</g>
</g>
<g>
</g>
<g>
</g>
<g>
</g>
<g>
</g>
<g>
</g>
<g>
</g>
<g>
</g>
<g>
</g>
<g>
</g>
<g>
</g>
<g>
</g>
<g>
</g>
<g>
</g>
<g>
</g>
<g>
</g>
</svg>
