<?xml version="1.0" encoding="iso-8859-1"?>
<!-- Generator: Adobe Illustrator 18.1.1, SVG Export Plug-In . SVG Version: 6.00 Build 0)  -->
<svg version="1.1" id="Capa_1" xmlns="http://www.w3.org/2000/svg" xmlns:xlink="http://www.w3.org/1999/xlink" x="0px" y="0px"
	 viewBox="0 0 491.667 491.667" style="enable-background:new 0 0 491.667 491.667;" xml:space="preserve">
<g>
	<polygon style="fill:#010002;" points="175,240.795 81,187.795 114,130.795 208,183.795 	"/>
	<polygon style="fill:#010002;" points="363,289.796 204,200.795 188,228.795 347,318.796 	"/>
	<polygon style="fill:#010002;" points="383,300.796 366,329.796 448,375.796 465,347.796 	"/>
	<path style="fill:#010002;" d="M361,329.796c-2,2.667-4.666,3-8,1c-3.332-2-4.332-4.333-3-7l19-34c2-2.667,4.668-3,8-1
		c3.334,2,4.332,4.333,3,7L361,329.796z"/>
	<path style="fill:#010002;" d="M482,347.796c-3.332-1.333-7-2-11-2l-21,37c2,3.333,4.668,5.666,8,7c4.668,2.667,9.5,3.333,14.5,2
		c5-1.334,8.834-4,11.5-8l5-10c2.668-4.667,3.334-9.5,2-14.5C489.667,354.296,486.667,350.463,482,347.796z"/>
	<path style="fill:#010002;" d="M217.5,172.795c-3,5.333-7.167,6.333-12.5,3l-83-46c-5.333-3.336-6.5-7.669-3.5-13
		c3-5.333,7.167-6.333,12.5-3l83,46C219.333,163.128,220.5,167.462,217.5,172.795z"/>
	<path style="fill:#010002;" d="M228.5,152.795c-3,5.333-7.167,6.333-12.5,3l-82-46c-5.333-3.336-6.5-7.669-3.5-13
		c3-5.333,7.167-6.333,12.5-3l82,46C230.333,143.128,231.5,147.462,228.5,152.795z"/>
	<path style="fill:#010002;" d="M159.5,274.796c-3,5.333-7.5,6.333-13.5,3l-82-46.001c-5.333-3.333-6.5-7.667-3.5-13
		s7.167-6.333,12.5-3l83,46.001C161.333,265.13,162.5,269.463,159.5,274.796z"/>
	<path style="fill:#010002;" d="M170.5,254.796c-3,5.333-7.167,6.333-12.5,3l-83-46.001c-4.667-3.335-5.5-7.669-2.5-13
		c3-5.333,7.167-6.333,12.5-3l82,46C172.333,245.129,173.5,249.464,170.5,254.796z"/>
	<rect x="32" y="336.796" style="fill:#010002;" width="146" height="17"/>
	<path style="fill:#010002;" d="M209,371.796c-0.667-6.667-4.333-10-11-10H12c-6.667,0-10.667,3.333-12,10v28h210v-28H209z"/>
</g>
<g>
</g>
<g>
</g>
<g>
</g>
<g>
</g>
<g>
</g>
<g>
</g>
<g>
</g>
<g>
</g>
<g>
</g>
<g>
</g>
<g>
</g>
<g>
</g>
<g>
</g>
<g>
</g>
<g>
</g>
</svg>
