<?xml version="1.0" encoding="iso-8859-1"?>
<!-- Generator: Adobe Illustrator 18.1.1, SVG Export Plug-In . SVG Version: 6.00 Build 0)  -->
<svg version="1.1" id="Capa_1" xmlns="http://www.w3.org/2000/svg" xmlns:xlink="http://www.w3.org/1999/xlink" x="0px" y="0px"
	 viewBox="0 0 512 512" style="enable-background:new 0 0 512 512;" xml:space="preserve">
<g>
	<g>
		<path style="fill:#090509;" d="M143,164c16,5.333,28.667,14.167,38,26.5s14,27.167,14,44.5v264c0,2,0.5,4.167,1.5,6.5s1.5,4,1.5,5
			s-1.333,1.5-4,1.5H43c-8,0-12-4.333-12-13V235c0-17.333,4.667-32.5,14-45.5S66.667,168,82,164V41h61V164z"/>
		<rect x="82" style="fill:#090509;" width="61" height="20"/>
		<path style="fill:#090509;" d="M361,49c-5.333-0.667-8-3.667-8-9c0-3.333,1.667-6,5-8c-3.333-2-5-5.333-5-10c0-2.667,1-5.333,3-8
			s4-4,6-4h48c2.667,0,5,1.333,7,4c2,2.67,3,5.337,3,8c0,4-1.667,7-5,9c3.333,2,5,4.667,5,8c0,6-2.667,9.333-8,10l61,149
			c5.333,15.333,8,26,8,32v262c0,13.333-3.333,20-10,20H317c-6.667,0-10-5.667-10-17v-3V225c0-8,2-17,6-27L361,49z"/>
	</g>
</g>
<g>
</g>
<g>
</g>
<g>
</g>
<g>
</g>
<g>
</g>
<g>
</g>
<g>
</g>
<g>
</g>
<g>
</g>
<g>
</g>
<g>
</g>
<g>
</g>
<g>
</g>
<g>
</g>
<g>
</g>
</svg>
