<?xml version="1.0" encoding="iso-8859-1"?>
<!-- Generator: Adobe Illustrator 18.1.1, SVG Export Plug-In . SVG Version: 6.00 Build 0)  -->
<svg version="1.1" id="Capa_1" xmlns="http://www.w3.org/2000/svg" xmlns:xlink="http://www.w3.org/1999/xlink" x="0px" y="0px"
	 viewBox="0 0 472 472" style="enable-background:new 0 0 472 472;" xml:space="preserve">
<g>
	<g>
		<polygon style="fill:#010002;" points="31,31 205,31 205,52 185,52 185,66 31,80 		"/>
		<path style="fill:#010002;" d="M277.5,81c11,0,20.333-4,28-12S317,51.5,317,40.5S313.167,20,305.5,12s-17-12-28-12S257,4,249,12
			s-12,17.5-12,28.5S241,61,249,69S266.5,81,277.5,81z"/>
		<path style="fill:#010002;" d="M308,79c5.333-6,12-9,20-9s15,3,21,9l86,86c4,4,6,8.333,6,13v261c0,9.333-3,17.167-9,23.5
			s-13.333,9.5-22,9.5s-16-3.167-22-9.5s-9-14.167-9-23.5V224l-82-81l-33,32c-4,5.333-9.333,8-16,8c-6,0-11-2.333-15-7l-55-56
			c-4-4-5.833-8.833-5.5-14.5s2.667-10.333,7-14s9.167-5.167,14.5-4.5s10,3,14,7l42,43L308,79z"/>
		<path style="fill:#010002;" d="M139,91c-0.667-4.667-3.333-7-8-7c-3.333,0-5.333,2.333-6,7l-12,78v303h113v-41h-72l-1-260L139,91z
			"/>
	</g>
</g>
<g>
</g>
<g>
</g>
<g>
</g>
<g>
</g>
<g>
</g>
<g>
</g>
<g>
</g>
<g>
</g>
<g>
</g>
<g>
</g>
<g>
</g>
<g>
</g>
<g>
</g>
<g>
</g>
<g>
</g>
</svg>
