<?xml version="1.0" encoding="iso-8859-1"?>
<!-- Generator: Adobe Illustrator 18.1.1, SVG Export Plug-In . SVG Version: 6.00 Build 0)  -->
<svg version="1.1" id="Capa_1" xmlns="http://www.w3.org/2000/svg" xmlns:xlink="http://www.w3.org/1999/xlink" x="0px" y="0px"
	 viewBox="0 0 473.889 473.889" style="enable-background:new 0 0 473.889 473.889;" xml:space="preserve">
<g>
	<g>
		<path style="fill:#010002;" d="M473,102.944l-2-25H318c-7.333,54.667-4,109.334,10,164c8,13.333,25,21,51,23v100h-3l-38,31h113
			l-37-31h-4v-101c24.667-3.333,41.667-10.667,51-22c6-21.333,9.833-45.667,11.5-73S474.333,119.611,473,102.944z M461,139.944H328
			v-52h133V139.944z"/>
		<path style="fill:#010002;" d="M266,108.944H0l113,169v87H57c-4.667,0-8.5,1.5-11.5,4.5s-4.5,6.667-4.5,11s1.5,8,4.5,11
			s6.833,4.5,11.5,4.5h153c4.667,0,8.5-1.5,11.5-4.5s4.5-6.667,4.5-11s-1.5-8-4.5-11s-6.833-4.5-11.5-4.5h-56v-87L266,108.944z"/>
	</g>
</g>
<g>
</g>
<g>
</g>
<g>
</g>
<g>
</g>
<g>
</g>
<g>
</g>
<g>
</g>
<g>
</g>
<g>
</g>
<g>
</g>
<g>
</g>
<g>
</g>
<g>
</g>
<g>
</g>
<g>
</g>
</svg>
